<?xml version="1.0" encoding="utf-8"?>
<!-- Generator: Adobe Illustrator 16.0.0, SVG Export Plug-In . SVG Version: 6.00 Build 0)  -->
<!DOCTYPE svg PUBLIC "-//W3C//DTD SVG 1.1//EN" "http://www.w3.org/Graphics/SVG/1.1/DTD/svg11.dtd">
<svg xmlns="http://www.w3.org/2000/svg" viewBox="1350 62 216.705 156.013"><g transform="translate(1350 31.654)"><path d="M203.53,62.649l-2.5-14.192c-1.852-10.495-11.67-18.111-23.346-18.111a27.258,27.258,0,0,0-4.715.414L20.623,57.62C7.289,59.97-1.824,71.737.31,83.848l.17.959v78.23c0,12.86,11.54,23.322,25.727,23.322H190.978c14.187,0,25.727-10.462,25.727-23.322V82.986C216.705,74.259,211.382,66.647,203.53,62.649ZM175.265,43.784a14.011,14.011,0,0,1,2.418-.214c5.246,0,9.587,3.022,10.321,7.182l1.572,8.91H85.211Zm28.214,119.255c0,5.566-5.608,10.1-12.5,10.1H26.207c-6.893,0-12.5-4.53-12.5-10.1V82.986c0-5.566,5.608-10.1,12.5-10.1H190.978c6.893,0,12.5,4.53,12.5,10.1Z"></path><rect width="13.226" height="11.383" transform="translate(59.252 128.702)"></rect><rect width="13.226" height="11.383" transform="translate(59.252 151.471)"></rect><rect width="13.226" height="11.383" transform="translate(59.252 83.171)"></rect><rect width="13.226" height="11.383" transform="translate(59.252 105.936)"></rect><path d="M160.066,98.668l-9.591,10.25L120.048,99.81l-5.138,5.136a1.443,1.443,0,0,0,0,2.037l24.669,13.579-12.406,12.62-9.593-1.955-3.2,3.2a1.085,1.085,0,0,0,0,1.536l18.109,18.109a1.088,1.088,0,0,0,1.536,0l3.2-3.2-2-9.774,12.571-12.4,13.671,24.843a1.44,1.44,0,0,0,2.039,0l5.136-5.136-9.168-30.63,10.175-9.521a6.787,6.787,0,1,0-9.581-9.586Z"></path></g></svg>