<?xml version="1.0" encoding="utf-8"?>
<!-- Generator: Adobe Illustrator 16.0.0, SVG Export Plug-In . SVG Version: 6.00 Build 0)  -->
<!DOCTYPE svg PUBLIC "-//W3C//DTD SVG 1.1//EN" "http://www.w3.org/Graphics/SVG/1.1/DTD/svg11.dtd">
<svg xmlns="http://www.w3.org/2000/svg" viewBox="1090 62 250.259 401.395"><path d="M200.7,0A125.271,125.271,0,0,0,75.568,125.129V276.266a125.129,125.129,0,0,0,250.259,0V125.129A125.271,125.271,0,0,0,200.7,0ZM310.827,125.129V127.1a237.083,237.083,0,0,1-105.133,27.057V112.324a23.573,23.573,0,0,0,18.539-23V57.96a23.573,23.573,0,0,0-18.539-23V15.118A110.262,110.262,0,0,1,310.827,125.129ZM200.7,44.424A13.552,13.552,0,0,1,214.234,57.96V89.328a13.536,13.536,0,1,1-27.072,0V57.96A13.552,13.552,0,0,1,200.7,44.424Zm-5-29.305V34.965a23.574,23.574,0,0,0-18.532,23V89.328a23.574,23.574,0,0,0,18.532,23V154.16A237.06,237.06,0,0,1,90.569,127.1V125.13A110.261,110.261,0,0,1,195.695,15.119Zm5,371.277A110.254,110.254,0,0,1,90.568,276.267V138.339a247.279,247.279,0,0,0,110.126,25.88,247.3,247.3,0,0,0,110.133-25.878V276.266A110.254,110.254,0,0,1,200.7,386.4Z" transform="translate(1014.432 62)"></path></svg>