<?xml version="1.0" encoding="iso-8859-1"?>
<!-- Generator: Adobe Illustrator 19.0.0, SVG Export Plug-In . SVG Version: 6.00 Build 0)  -->
<svg version="1.1" id="Capa_1" xmlns="http://www.w3.org/2000/svg" xmlns:xlink="http://www.w3.org/1999/xlink" x="0px" y="0px"
	 viewBox="0 0 512.003 512.003" style="enable-background:new 0 0 512.003 512.003;" xml:space="preserve">
<path style="fill:#F6BB42;" d="M301.123,172.015c-37.604-30.011-85.22-47.992-137.071-47.992S64.583,142.004,26.98,172.015H301.123z
	"/>
<path style="fill:#FFCE54;" d="M266.441,171.983c-29.066-20.149-64.326-31.987-102.374-31.987s-73.316,11.838-102.39,31.987H266.441
	z"/>
<g style="opacity:0.4;">
	<path style="fill:#FFFFFF;" d="M228.885,172.015c-19.411-10.186-41.47-16.021-64.912-16.021s-45.5,5.835-64.912,16.021H228.885z"/>
</g>
<rect x="4" y="171.981" style="fill:#AC92EC;" width="319.96" height="295.95"/>
<g>
	<rect x="132.03" y="171.981" style="fill:#DA4453;" width="63.989" height="64.29"/>
	<rect x="132.03" y="403.661" style="fill:#DA4453;" width="63.989" height="64.3"/>
</g>
<g style="opacity:0.4;">
	<rect x="132.06" y="172.011" style="fill:#FFFFFF;" width="7.92" height="73.75"/>
</g>
<g style="opacity:0.4;">
	<rect x="132.06" y="394.181" style="fill:#FFFFFF;" width="7.92" height="73.75"/>
</g>
<g style="opacity:0.2;">
	<rect x="188.13" y="172.011" style="fill:#3A3847;" width="7.92" height="73.75"/>
</g>
<g style="opacity:0.2;">
	<rect x="188.13" y="394.181" style="fill:#3A3847;" width="7.92" height="73.75"/>
</g>
<path style="fill:#DA4453;" d="M446.17,274.881c-7.279,5.757-13.521,9.194-13.521,9.194l-6.24-14.717l-12.475-29.515h0.078
	c0,0,10.24-50.711,44.156-18.638C480,241.925,461.043,263.121,446.17,274.881z"/>
<g style="opacity:0.3;">
	<path style="fill:#3A3847;" d="M434.406,277.356l-12.475-29.515h0.078c0,0,9.475-46.832,40.354-21.945
		c-1.203-1.566-2.547-3.128-4.195-4.69c-33.916-32.073-44.156,18.638-44.156,18.638h-0.078l12.475,29.515l6.24,14.717
		c0,0,1.43-0.789,3.672-2.211L434.406,277.356z"/>
</g>
<g>
	<path style="fill:#DA4453;" d="M461.043,289.519c5.602,13.357,0.086,20.794,0.086,20.794c-9.201,1.203-15.998,3.28-15.998,3.28
		l-6.24-14.716l-6.242-14.802c0,0,6.242-3.438,13.521-9.194C446.17,274.881,455.365,276.154,461.043,289.519z"/>
	<path style="fill:#DA4453;" d="M461.129,310.313c18.715-2.476,47.266-1.359,46.867,28.792
		c-0.641,46.633-44.148,18.638-44.148,18.638h-0.078l-12.482-29.433l-6.156-14.717C445.131,313.593,451.928,311.516,461.129,310.313
		z"/>
</g>
<g style="opacity:0.3;">
	<path style="fill:#3A3847;" d="M496.123,314.702c2.484,4.172,3.969,9.491,3.875,16.404c-0.492,35.947-26.395,27.565-38.268,21.824
		l2.039,4.812h0.078c0,0,43.508,27.995,44.148-18.638C508.16,326.505,503.24,319.022,496.123,314.702z"/>
</g>
<g>
	<polygon style="fill:#AC92EC;" points="463.77,357.742 501.123,446.213 449.607,467.967 399.779,350.063 451.287,328.31 	"/>
	<polygon style="fill:#AC92EC;" points="413.934,239.844 426.408,269.358 374.9,291.112 325.064,173.296 376.58,151.459 	"/>
</g>
<g style="opacity:0.3;">
	<polygon style="fill:#FFFFFF;" points="415.777,350.063 453.717,334.043 451.287,328.31 399.779,350.063 449.607,467.967 
		463.184,462.233 	"/>
</g>
<g style="opacity:0.3;">
	<polygon style="fill:#FFFFFF;" points="341.062,173.296 379.01,157.212 376.58,151.459 325.064,173.296 374.9,291.112 
		388.477,285.379 	"/>
</g>
<polygon style="fill:#ED5565;" points="445.131,313.593 451.287,328.31 399.779,350.063 374.9,291.112 426.408,269.358 
	432.648,284.075 438.891,298.877 "/>
<g style="opacity:0.2;">
	<polygon style="fill:#3A3847;" points="463.77,357.742 451.287,328.31 445.131,313.593 438.891,298.877 432.648,284.075 
		426.408,269.358 413.934,239.844 376.58,151.459 363.012,157.212 397.936,239.844 410.41,269.358 416.652,284.075 422.893,298.877 
		429.135,313.593 435.289,328.31 447.771,357.742 485.125,446.213 447.186,462.233 449.607,467.967 501.123,446.213 	"/>
</g>
<g style="opacity:0.2;">
	<polygon style="fill:#FFFFFF;" points="390.898,291.112 428.838,275.092 426.408,269.358 374.9,291.112 399.779,350.063 
		413.355,344.331 	"/>
</g>
<g>
	<path style="fill:#FFCE54;" d="M151.733,294.151c0,7.6-6.233,13.842-13.833,13.842c-7.679,0-13.842-6.242-13.842-13.842
		c0-7.679,6.163-13.834,13.842-13.834C145.5,280.317,151.733,286.473,151.733,294.151z"/>
	<path style="fill:#FFCE54;" d="M190.211,328.31c7.601,0,13.834,6.155,13.834,13.834c0,7.6-6.233,13.842-13.834,13.842
		c-7.678,0-13.841-6.242-13.841-13.842C176.37,334.465,182.533,328.31,190.211,328.31z"/>
</g>
<path style="fill:#ED5565;" d="M247.718,311.672l8.318,8.241l-8.318,8.318l6.483,9.678l-9.678,6.477l4.476,10.803l-10.795,4.476
	l2.32,11.436l-11.521,2.242l0.078,11.678h-11.678l-2.32,11.436l-11.436-2.32l-4.476,10.804l-10.725-4.484l-6.476,9.764l-9.756-6.561
	l-8.241,8.318l-8.241-8.318l-9.678,6.475l-6.476-9.678l-10.803,4.484l-4.476-10.804l-11.357,2.32l-2.32-11.514H98.945v-11.6
	l-11.436-2.32l2.32-11.436l-10.803-4.483l4.484-10.717l-9.679-6.477l6.476-9.764l-8.241-8.232l8.163-8.163l-6.483-9.679l9.765-6.475
	l-4.484-10.804l10.717-4.476l-2.234-11.436l11.436-2.242v-11.678h11.678l2.242-11.439l11.436,2.242l4.476-10.799l10.803,4.48
	l6.476-9.679l9.678,6.476l8.241-8.236l8.241,8.236l9.756-6.476l6.397,9.679l10.803-4.48l4.476,10.799l11.436-2.32l2.32,11.436
	h11.678l-0.078,11.682l11.521,2.234l-2.32,11.443l10.795,4.476l-4.476,10.804l9.678,6.475L247.718,311.672z M137.9,307.993
	c7.6,0,13.833-6.242,13.833-13.842c0-7.679-6.233-13.834-13.833-13.834c-7.679,0-13.842,6.155-13.842,13.834
	C124.058,301.751,130.221,307.993,137.9,307.993z M190.211,328.31c-7.678,0-13.841,6.155-13.841,13.834
	c0,7.6,6.163,13.842,13.841,13.842c7.601,0,13.834-6.242,13.834-13.842C204.045,334.465,197.812,328.31,190.211,328.31z"/>
<g style="opacity:0.3;">
	<polygon style="fill:#FFFFFF;" points="182.432,230.466 181.971,229.767 181.83,229.86 	"/>
	<polygon style="fill:#FFFFFF;" points="181.814,410.116 181.971,410.218 182.494,409.43 	"/>
	<polygon style="fill:#FFFFFF;" points="155.577,400.454 144.773,404.939 140.297,394.135 128.94,396.455 126.62,384.941 
		114.942,384.941 114.942,373.342 103.507,371.022 105.827,359.586 95.024,355.103 99.507,344.386 89.83,337.909 96.305,328.146 
		88.064,319.913 96.227,311.75 89.744,302.071 99.507,295.597 95.024,284.793 105.741,280.317 103.507,268.882 114.942,266.64 
		114.942,254.962 126.62,254.962 128.862,243.522 140.297,245.765 144.773,234.965 155.577,239.445 161.732,230.247 
		155.733,236.242 146.055,229.767 139.579,239.445 128.776,234.965 124.3,245.765 112.865,243.522 110.623,254.962 98.945,254.962 
		98.945,266.64 87.509,268.882 89.744,280.317 79.026,284.793 83.51,295.597 73.746,302.071 80.229,311.75 72.066,319.913 
		80.307,328.146 73.832,337.909 83.51,344.386 79.026,355.103 89.83,359.586 87.509,371.022 98.945,373.342 98.945,384.941 
		110.623,384.941 112.943,396.455 124.3,394.135 128.776,404.939 139.579,400.454 146.055,410.132 155.733,403.657 161.857,409.836 
			"/>
</g>
<g style="opacity:0.3;">
	<polygon style="fill:#3A3847;" points="144.891,409.523 145.352,410.218 145.492,410.124 	"/>
	<polygon style="fill:#3A3847;" points="145.508,229.868 145.352,229.767 144.828,230.556 	"/>
	<polygon style="fill:#3A3847;" points="171.746,239.531 182.549,235.047 187.025,245.851 198.382,243.53 200.702,255.044 
		212.38,255.044 212.38,266.64 223.815,268.968 221.496,280.403 232.298,284.887 227.815,295.605 237.493,302.071 231.018,311.836 
		239.258,320.077 231.095,328.239 237.579,337.909 227.815,344.394 232.298,355.189 221.582,359.672 223.815,371.107 
		212.38,373.342 212.38,385.027 200.702,385.027 198.46,396.463 187.025,394.221 182.549,405.024 171.746,400.54 165.59,409.742 
		171.589,403.743 181.268,410.218 187.743,400.54 198.546,405.024 203.022,394.221 214.458,396.463 216.7,385.027 228.377,385.027 
		228.377,373.342 239.813,371.107 237.579,359.672 248.296,355.196 243.812,344.394 253.577,337.917 247.093,328.239 
		255.256,320.077 247.015,311.844 253.491,302.079 243.812,295.605 248.296,284.887 237.493,280.403 239.813,268.968 
		228.377,266.64 228.377,255.044 216.7,255.044 214.379,243.53 203.022,245.851 198.546,235.047 187.743,239.531 181.268,229.853 
		171.589,236.328 165.465,230.149 	"/>
</g>
<g style="opacity:0.4;">
	<rect x="4" y="171.981" style="fill:#FFFFFF;" width="15.997" height="295.98"/>
</g>
<g style="opacity:0.2;">
	<rect x="307.95" y="171.981" style="fill:#3A3847;" width="15.996" height="295.98"/>
</g>
<g>
	<path style="fill:#3A3847;" d="M323.947,471.966H4c-2.211,0-4-1.788-4-3.999V172.015c0-2.211,1.789-4,4-4h319.948
		c2.211,0,4,1.789,4,4v295.952C327.947,470.178,326.158,471.966,323.947,471.966z M7.999,463.968H319.95V176.014H7.999V463.968z"/>
	<path style="fill:#3A3847;" d="M132.057,471.966c-2.211,0-4-1.788-4-3.999v-47.992c0-2.211,1.789-3.999,4-3.999
		c2.21,0,3.999,1.788,3.999,3.999v47.992C136.056,470.178,134.267,471.966,132.057,471.966z"/>
	<path style="fill:#3A3847;" d="M196.046,471.966c-2.21,0-3.999-1.788-3.999-3.999v-47.992c0-2.211,1.789-3.999,3.999-3.999
		c2.211,0,4,1.788,4,3.999v47.992C200.046,470.178,198.257,471.966,196.046,471.966z"/>
	<path style="fill:#3A3847;" d="M132.057,223.928c-2.211,0-4-1.789-4-3.999v-47.914c0-2.211,1.789-4,4-4c2.21,0,3.999,1.789,3.999,4
		v47.914C136.056,222.139,134.267,223.928,132.057,223.928z"/>
	<path style="fill:#3A3847;" d="M196.046,223.928c-2.21,0-3.999-1.789-3.999-3.999v-47.914c0-2.211,1.789-4,3.999-4
		c2.211,0,4,1.789,4,4v47.914C200.046,222.139,198.257,223.928,196.046,223.928z"/>
	<path style="fill:#3A3847;" d="M275.955,160.017c-0.695,0-1.391-0.18-2.031-0.555c-19.91-11.74-60.677-31.44-109.95-31.44
		s-90.041,19.7-109.951,31.44c-1.914,1.109-4.359,0.492-5.476-1.414c-1.125-1.902-0.492-4.354,1.414-5.476
		c20.614-12.158,62.842-32.549,114.013-32.549s93.399,20.391,114.013,32.549c1.906,1.121,2.539,3.574,1.414,5.476
		C278.658,159.313,277.322,160.017,275.955,160.017z"/>
	<path style="fill:#3A3847;" d="M239.954,160.017c-0.594,0-1.203-0.137-1.781-0.422c-0.312-0.156-31.752-15.576-74.199-15.576
		s-73.886,15.419-74.199,15.576c-2,0.992-4.375,0.18-5.367-1.793c-0.984-1.976-0.188-4.374,1.789-5.362
		c1.344-0.672,33.354-16.419,77.777-16.419s76.433,15.747,77.776,16.419c1.976,0.988,2.773,3.386,1.789,5.362
		C242.836,159.204,241.422,160.017,239.954,160.017z"/>
	<path style="fill:#3A3847;" d="M163.974,104.025c-2.21,0-4-1.789-4-3.999V44.035c0-2.211,1.789-3.999,4-3.999s4,1.788,4,3.999
		v55.991C167.973,102.237,166.184,104.025,163.974,104.025z"/>
	<path style="fill:#3A3847;" d="M123.011,107.544c-1.898,0-3.585-1.363-3.929-3.304l-9.756-55.112
		c-0.383-2.171,1.062-4.249,3.242-4.632c2.109-0.395,4.241,1.062,4.632,3.241l9.756,55.112c0.383,2.172-1.062,4.25-3.242,4.632
		C123.48,107.525,123.246,107.544,123.011,107.544z"/>
	<path style="fill:#3A3847;" d="M83.268,118.184c-1.633,0-3.164-1.008-3.757-2.633l-19.122-52.55
		c-0.757-2.074,0.312-4.371,2.39-5.124c2.094-0.746,4.367,0.312,5.124,2.39l19.122,52.551c0.758,2.073-0.312,4.37-2.39,5.124
		C84.182,118.105,83.721,118.184,83.268,118.184z"/>
	<path style="fill:#3A3847;" d="M45.993,135.622c-1.383,0-2.727-0.719-3.468-2.004L14.529,85.063
		c-1.102-1.91-0.445-4.358,1.469-5.46c1.914-1.109,4.358-0.449,5.468,1.469l27.995,48.555c1.102,1.91,0.445,4.358-1.468,5.46
		C47.36,135.45,46.672,135.622,45.993,135.622z"/>
	<path style="fill:#3A3847;" d="M281.955,135.622c-0.68,0-1.367-0.172-2-0.535c-1.914-1.105-2.57-3.55-1.461-5.464L306.49,81.15
		c1.102-1.914,3.553-2.559,5.459-1.465c1.914,1.105,2.57,3.55,1.461,5.464l-27.994,48.473
		C284.682,134.907,283.33,135.622,281.955,135.622z"/>
	<path style="fill:#3A3847;" d="M244.679,118.262c-0.453,0-0.914-0.078-1.367-0.242c-2.077-0.754-3.147-3.047-2.39-5.125
		l19.123-52.628c0.75-2.073,3.029-3.132,5.123-2.39c2.078,0.753,3.148,3.046,2.391,5.124l-19.122,52.628
		C247.851,117.254,246.312,118.262,244.679,118.262z"/>
	<path style="fill:#3A3847;" d="M204.936,107.626c-0.234,0-0.469-0.02-0.695-0.059c-2.18-0.383-3.632-2.457-3.25-4.632l9.679-55.194
		c0.375-2.183,2.554-3.632,4.624-3.249c2.179,0.383,3.632,2.457,3.25,4.632l-9.678,55.194
		C208.529,106.26,206.841,107.626,204.936,107.626z"/>
	<path style="fill:#3A3847;" d="M449.607,471.966c-1.555,0-3.039-0.914-3.688-2.444l-124.54-294.668
		c-0.859-2.035,0.094-4.378,2.123-5.242l51.516-21.836c0.984-0.406,2.094-0.418,3.062-0.023c0.984,0.398,1.773,1.172,2.188,2.148
		l124.541,294.757c0.859,2.03-0.094,4.382-2.131,5.241l-51.516,21.754C450.654,471.864,450.131,471.966,449.607,471.966z
		 M330.307,175.416l121.426,287.31l44.148-18.638L374.455,156.705L330.307,175.416z"/>
	<path style="fill:#3A3847;" d="M374.9,295.112c-1.555,0-3.039-0.914-3.688-2.445c-0.857-2.031,0.094-4.382,2.133-5.241
		l51.508-21.755c2.016-0.836,4.375,0.086,5.242,2.133c0.859,2.031-0.094,4.382-2.133,5.241L376.454,294.8
		C375.947,295.011,375.424,295.112,374.9,295.112z"/>
	<path style="fill:#3A3847;" d="M399.779,354.063c-1.555,0-3.039-0.914-3.688-2.445c-0.859-2.031,0.094-4.382,2.133-5.241
		l51.508-21.754c2.023-0.836,4.375,0.086,5.242,2.132c0.857,2.031-0.094,4.383-2.133,5.242l-51.508,21.754
		C400.826,353.962,400.303,354.063,399.779,354.063z"/>
	<path style="fill:#3A3847;" d="M432.656,288.074c-1.414,0-2.779-0.75-3.506-2.07c-1.07-1.929-0.367-4.366,1.57-5.429
		c0.055-0.039,6.068-3.375,12.965-8.834c9.008-7.117,19.842-18.025,20.365-29.598c0.289-6.351-2.539-12.252-8.633-18.036
		c-8.271-7.811-15.387-10.857-21.215-9.01c-9.74,3.089-15.053,19.481-16.27,25.539c-0.438,2.171-2.594,3.554-4.711,3.128
		c-2.172-0.438-3.57-2.546-3.133-4.714c0.219-1.078,5.516-26.449,21.699-31.577c8.797-2.789,18.584,0.859,29.129,10.826
		c7.771,7.378,11.514,15.521,11.123,24.207c-0.656,14.584-13.084,27.359-23.387,35.514c-7.459,5.891-13.811,9.413-14.076,9.554
		C433.969,287.918,433.305,288.074,432.656,288.074z"/>
	<path style="fill:#3A3847;" d="M488.727,370.053c-12.951,0-26.324-8.483-27.043-8.943c-1.859-1.195-2.391-3.672-1.203-5.522
		c1.195-1.859,3.664-2.406,5.531-1.211c5.209,3.343,20.73,10.959,29.682,6.132c5.352-2.883,8.148-10.101,8.303-21.458
		c0.109-8.404-2.146-14.536-6.896-18.754c-8.67-7.71-24.051-7.538-35.447-6.016c-8.725,1.141-15.287,3.117-15.357,3.141
		c-2.102,0.648-4.342-0.547-4.99-2.664c-0.641-2.108,0.547-4.343,2.654-4.991c0.289-0.086,7.227-2.187,16.654-3.421
		c13.045-1.711,30.879-1.734,41.799,7.967c6.498,5.773,9.725,14.131,9.584,24.848c-0.203,14.49-4.414,24.043-12.529,28.402
		C496.131,369.35,492.443,370.053,488.727,370.053z"/>
	<path style="fill:#3A3847;" d="M461.129,314.312c-0.828,0-1.664-0.258-2.383-0.789c-1.773-1.312-2.148-3.819-0.828-5.592
		c0.125-0.188,3.984-6.016-0.562-16.865c-4.607-10.85-11.514-12.186-11.803-12.232c-2.148-0.383-3.631-2.413-3.295-4.569
		c0.344-2.148,2.271-3.616,4.459-3.343c0.469,0.062,11.514,1.757,18.006,17.036c6.412,15.294-0.102,24.363-0.383,24.738
		C463.559,313.749,462.348,314.312,461.129,314.312z"/>
	<path style="fill:#3A3847;" d="M438.891,302.876c-1.539,0-3.016-0.898-3.664-2.405c-0.883-2.023,0.039-4.382,2.07-5.257
		l7.357-3.203c2.008-0.891,4.383,0.039,5.258,2.07c0.883,2.023-0.039,4.382-2.07,5.257l-7.357,3.202
		C439.969,302.767,439.422,302.876,438.891,302.876z"/>
	<path style="fill:#3A3847;" d="M163.974,415.976c-1.07,0-2.093-0.43-2.843-1.188l-5.913-5.976l-6.937,4.647
		c-1.844,1.219-4.327,0.727-5.554-1.102l-4.647-6.952l-7.772,3.227c-0.984,0.406-2.078,0.406-3.062,0
		c-0.976-0.406-1.757-1.188-2.164-2.164l-3.21-7.757l-8.131,1.664c-1.039,0.227-2.117,0.008-3.008-0.586
		c-0.883-0.586-1.5-1.508-1.71-2.546l-1.671-8.304h-8.405c-2.21,0-3.999-1.789-3.999-3.999v-8.327l-8.233-1.672
		c-1.039-0.211-1.953-0.828-2.539-1.71c-0.585-0.883-0.796-1.969-0.585-3.008l1.664-8.21l-7.756-3.218
		c-0.984-0.406-1.766-1.188-2.164-2.171c-0.406-0.984-0.406-2.086,0.008-3.07l3.21-7.679l-6.944-4.64
		c-1.828-1.227-2.328-3.703-1.109-5.538l4.671-7.038l-5.929-5.921c-0.75-0.75-1.172-1.766-1.172-2.827
		c0-1.062,0.422-2.078,1.172-2.828l5.835-5.843l-4.647-6.944c-0.594-0.883-0.812-1.969-0.602-3.008
		c0.211-1.046,0.828-1.96,1.711-2.554l7.014-4.647l-3.218-7.765c-0.844-2.031,0.117-4.374,2.156-5.218l7.702-3.227l-1.609-8.232
		c-0.422-2.164,0.992-4.266,3.155-4.688l8.21-1.612v-8.386c0-2.21,1.789-3.999,3.999-3.999h8.39l1.609-8.21
		c0.203-1.039,0.812-1.957,1.687-2.55c0.883-0.593,1.945-0.824,3.008-0.605l8.217,1.613l3.226-7.776
		c0.406-0.98,1.188-1.758,2.164-2.164c0.984-0.406,2.078-0.406,3.062,0l7.772,3.222l4.647-6.948
		c0.594-0.883,1.508-1.496,2.546-1.699c1.031-0.234,2.125,0.008,3.007,0.598l6.944,4.647l5.921-5.913
		c1.562-1.562,4.093-1.562,5.655,0l5.929,5.925l7.03-4.667c0.883-0.582,1.976-0.785,3.007-0.59c1.039,0.215,1.953,0.828,2.539,1.715
		l4.577,6.924l7.757-3.214c0.984-0.406,2.078-0.406,3.062,0c0.976,0.406,1.757,1.184,2.164,2.164l3.218,7.756l8.202-1.667
		c2.18-0.395,4.281,0.957,4.718,3.124l1.672,8.233h8.405c1.062,0,2.085,0.426,2.835,1.18c0.75,0.757,1.172,1.78,1.164,2.847
		l-0.055,8.362l8.257,1.597c1.054,0.203,1.976,0.82,2.569,1.703c0.586,0.891,0.805,1.977,0.594,3.023l-1.664,8.217l7.749,3.211
		c2.039,0.844,3.008,3.187,2.164,5.226l-3.219,7.772l6.952,4.647c0.883,0.594,1.493,1.508,1.696,2.554
		c0.211,1.039-0.008,2.117-0.602,3l-4.64,6.937l5.968,5.913c0.758,0.75,1.188,1.773,1.188,2.836c0,1.062-0.422,2.085-1.172,2.835
		l-5.992,5.999l4.648,6.944c0.594,0.883,0.812,1.96,0.602,2.999c-0.203,1.047-0.812,1.961-1.696,2.555l-6.952,4.647l3.219,7.772
		c0.844,2.039-0.125,4.382-2.164,5.226l-7.749,3.21l1.664,8.21c0.211,1.047,0,2.133-0.594,3.023
		c-0.594,0.882-1.515,1.499-2.562,1.702l-8.265,1.602l0.047,7.241c0.109,0.359,0.164,0.75,0.164,1.148
		c0,2.21-1.789,3.999-3.999,3.999c-0.039,0.008-0.102,0.008-0.156,0h-8.405l-1.672,8.233c-0.21,1.038-0.828,1.952-1.71,2.538
		c-0.891,0.594-1.953,0.812-3.008,0.586l-8.202-1.664l-3.218,7.757c-0.406,0.984-1.188,1.766-2.171,2.164
		c-0.977,0.414-2.085,0.406-3.062-0.008l-7.679-3.203l-4.647,7.007c-0.594,0.891-1.508,1.508-2.555,1.711
		c-1.062,0.211-2.14-0.016-3.015-0.602l-7.007-4.718l-5.913,5.968C166.067,415.546,165.043,415.976,163.974,415.976z
		 M155.733,399.657c1.039,0,2.07,0.406,2.843,1.188l5.398,5.444l5.397-5.444c1.343-1.359,3.492-1.57,5.078-0.508l6.413,4.32
		l4.249-6.414c1.062-1.608,3.093-2.233,4.874-1.476l7.03,2.937l2.937-7.1c0.727-1.766,2.625-2.758,4.492-2.391l7.514,1.523
		l1.523-7.515c0.383-1.859,2.016-3.202,3.922-3.202h7.654l-0.054-7.655c-0.016-1.922,1.343-3.586,3.234-3.953l7.569-1.468
		l-1.523-7.483c-0.375-1.875,0.625-3.757,2.39-4.491l7.1-2.945l-2.944-7.108c-0.727-1.765-0.117-3.796,1.468-4.858l6.358-4.249
		l-4.257-6.351c-1.062-1.586-0.859-3.703,0.492-5.055l5.476-5.475l-5.46-5.414c-1.367-1.352-1.578-3.476-0.508-5.069l4.257-6.351
		l-6.358-4.249c-1.585-1.062-2.195-3.093-1.468-4.858l2.944-7.108l-7.1-2.944c-1.765-0.734-2.765-2.617-2.39-4.492l1.523-7.49
		l-7.561-1.461c-1.891-0.367-3.257-2.031-3.242-3.953l0.054-7.658h-7.654c-1.906,0-3.539-1.34-3.922-3.203l-1.523-7.519
		l-7.514,1.527c-1.867,0.344-3.765-0.621-4.492-2.39l-2.945-7.104l-7.108,2.949c-1.773,0.734-3.812,0.105-4.866-1.488l-4.187-6.335
		l-6.421,4.257c-1.57,1.05-3.695,0.843-5.039-0.504l-5.413-5.409l-5.414,5.409c-1.351,1.355-3.468,1.558-5.054,0.496l-6.351-4.25
		l-4.249,6.351c-1.07,1.585-3.093,2.195-4.858,1.472l-7.108-2.949l-2.945,7.104c-0.727,1.753-2.5,2.765-4.468,2.394l-7.507-1.473
		l-1.476,7.515c-0.367,1.875-2.007,3.23-3.921,3.23h-7.678v7.678c0,1.914-1.351,3.555-3.234,3.922l-7.507,1.476l1.461,7.515
		c0.367,1.859-0.625,3.727-2.382,4.453l-7.03,2.944l2.953,7.116c0.734,1.766,0.109,3.804-1.484,4.866l-6.413,4.249l4.242,6.343
		c1.062,1.586,0.859,3.702-0.492,5.054l-5.335,5.336l5.413,5.404c1.343,1.344,1.554,3.453,0.508,5.039l-4.274,6.445l6.366,4.257
		c1.586,1.07,2.203,3.109,1.461,4.874l-2.937,7.015l7.101,2.945c1.765,0.734,2.765,2.616,2.39,4.491l-1.523,7.515l7.515,1.522
		c1.859,0.383,3.203,2.016,3.203,3.922v7.601h7.678c1.906,0,3.547,1.343,3.921,3.21l1.531,7.585l7.429-1.523
		c1.867-0.367,3.765,0.625,4.492,2.391l2.945,7.107l7.108-2.952c1.765-0.719,3.788-0.117,4.858,1.468l4.249,6.359l6.351-4.258
		C154.186,399.876,154.959,399.657,155.733,399.657z"/>
	<path style="fill:#3A3847;" d="M148.054,471.966c-2.21,0-3.999-1.788-3.999-3.999v-23.996c0-2.21,1.789-3.999,3.999-3.999
		c2.211,0,4,1.789,4,3.999v23.996C152.054,470.178,150.265,471.966,148.054,471.966z"/>
	<path style="fill:#3A3847;" d="M180.049,200.01c-2.211,0-4-1.789-4-3.999v-23.996c0-2.211,1.789-4,4-4c2.21,0,3.999,1.789,3.999,4
		v23.996C184.048,198.221,182.26,200.01,180.049,200.01z"/>
	<path style="fill:#3A3847;" d="M128.057,359.984c-1.023,0-2.046-0.391-2.827-1.172c-1.562-1.562-1.562-4.093,0-5.655l71.988-71.988
		c1.562-1.562,4.093-1.562,5.655,0s1.562,4.093,0,5.655l-71.988,71.988C130.104,359.594,129.081,359.984,128.057,359.984z"/>
	<path style="fill:#3A3847;" d="M190.211,359.984c-9.834,0-17.841-8.007-17.841-17.841s8.007-17.833,17.841-17.833
		s17.833,7.999,17.833,17.833S200.046,359.984,190.211,359.984z M190.211,332.31c-5.429,0-9.842,4.413-9.842,9.834
		c0,5.429,4.413,9.842,9.842,9.842c5.421,0,9.834-4.413,9.834-9.842C200.046,336.723,195.632,332.31,190.211,332.31z"/>
	<path style="fill:#3A3847;" d="M137.9,311.992c-9.835,0-17.841-8.007-17.841-17.841c0-9.835,8.006-17.833,17.841-17.833
		c9.834,0,17.833,7.998,17.833,17.833C155.733,303.985,147.734,311.992,137.9,311.992z M137.9,284.316
		c-5.429,0-9.843,4.413-9.843,9.835c0,5.429,4.414,9.842,9.843,9.842c5.421,0,9.834-4.413,9.834-9.842
		C147.734,288.73,143.321,284.316,137.9,284.316z"/>
</g>
<g>
</g>
<g>
</g>
<g>
</g>
<g>
</g>
<g>
</g>
<g>
</g>
<g>
</g>
<g>
</g>
<g>
</g>
<g>
</g>
<g>
</g>
<g>
</g>
<g>
</g>
<g>
</g>
<g>
</g>
</svg>
