<svg height="464pt" viewBox="0 -16 464 464" width="464pt" xmlns="http://www.w3.org/2000/svg"><path d="m377.792969 224.007812h70.246093c8.804688-.023437 15.9375-7.15625 15.960938-15.960937v-.085937c-.023438-8.804688-7.15625-15.9375-15.960938-15.960938h-7.144531c-8.039062.179688-15.046875-5.429688-16.636719-13.3125-.792968-4.648438.503907-9.410156 3.546876-13.011719 3.042968-3.601562 7.519531-5.679687 12.234374-5.675781h8c8.820313-.023438 15.960938-7.179688 15.960938-16v-.039062c0-8.820313-7.140625-15.980469-15.960938-16h-7.144531c-8.039062.175781-15.046875-5.429688-16.636719-13.3125-.792968-4.648438.503907-9.410157 3.546876-13.011719 3.042968-3.601563 7.519531-5.679688 12.234374-5.675781h8c8.820313-.023438 15.960938-7.179688 15.960938-16 0-8.820313-7.140625-15.980469-15.960938-16h-8c-4.714843.003906-9.191406-2.074219-12.234374-5.675782-3.042969-3.605468-4.339844-8.363281-3.546876-13.011718 1.589844-7.882813 8.597657-13.492188 16.636719-13.3125h7.144531c8.820313-.023438 15.960938-7.179688 15.960938-16-.023438-8.804688-7.15625-15.9375005-15.960938-15.960938h-432.039062c-8.820312 0-15.9765625 7.140625-16 15.960938v.078124c0 8.835938 7.164062 16 16 16h7.144531c8.039063-.175781 15.046875 5.429688 16.640625 13.3125.78125 4.644532-.523437 9.394532-3.5625 12.992188-3.042968 3.59375-7.515625 5.664062-12.222656 5.664062h-8c-8.816406 0-15.9726562 7.132813-16 15.953126v.078124c0 8.835938 7.164062 16 16 16h7.144531c8.039063-.175781 15.046875 5.429688 16.640625 13.3125.78125 4.644532-.523437 9.394532-3.5625 12.992188-3.042968 3.59375-7.515625 5.664062-12.222656 5.664062h-8c-8.816406 0-15.9726562 7.132813-16 15.953126v.078124c0 8.835938 7.164062 16 16 16h7.144531c8.039063-.175781 15.046875 5.429688 16.640625 13.3125.78125 4.644532-.523437 9.394532-3.5625 12.992188-3.042968 3.59375-7.515625 5.664062-12.222656 5.664062h-8c-8.816406 0-15.9726562 7.132813-16 15.953126v.078124c.0234375 8.820313 7.179688 15.960938 16 15.960938h361.792969zm0 0" fill="#33b1a2"/><path d="m440.894531 32.007812h7.144531c8.820313-.023437 15.960938-7.179687 15.960938-16v-.046874c-.023438-8.804688-7.15625-15.9375005-15.960938-15.960938h-384.039062c.011719 10.722656.917969 21.425781 2.703125 32h245.296875c53.019531 0 96 42.980469 96 96v64h32.894531c-8.039062.179688-15.046875-5.429688-16.636719-13.3125-.792968-4.648438.503907-9.410156 3.546876-13.011719 3.042968-3.601562 7.519531-5.679687 12.234374-5.675781h8c8.820313-.023438 15.960938-7.179688 15.960938-16v-.039062c0-8.820313-7.140625-15.980469-15.960938-16h-7.144531c-8.039062.175781-15.046875-5.429688-16.636719-13.3125-.792968-4.648438.503907-9.410157 3.546876-13.011719 3.042968-3.601563 7.519531-5.679688 12.234374-5.675781h8c8.820313-.023438 15.960938-7.179688 15.960938-16 0-8.820313-7.140625-15.980469-15.960938-16h-8c-4.714843.003906-9.191406-2.074219-12.234374-5.675782-3.042969-3.605468-4.339844-8.363281-3.546876-13.011718 1.609376-7.863282 8.613282-13.449219 16.636719-13.265626zm0 0" fill="#88d3d1"/><path d="m448.039062 192.007812h-192.039062c-93.683594-.007812-173.683594-67.625-189.296875-160h-43.597656c8.039062-.179687 15.046875 5.429688 16.636719 13.3125.792968 4.640626-.5 9.394532-3.535157 12.996094-3.03125 3.601563-7.5 5.683594-12.207031 5.691406h-8c-8.816406 0-15.9726562 7.132813-16 15.953126v.078124c0 8.835938 7.164062 16 16 16h7.144531c8.039063-.175781 15.046875 5.429688 16.640625 13.3125.78125 4.644532-.523437 9.394532-3.5625 12.992188-3.042968 3.59375-7.515625 5.664062-12.222656 5.664062h-8c-8.816406 0-15.9726562 7.132813-16 15.953126v.078124c0 8.835938 7.164062 16 16 16h7.144531c8.039063-.175781 15.046875 5.429688 16.640625 13.3125.78125 4.644532-.523437 9.394532-3.5625 12.992188-3.042968 3.59375-7.515625 5.664062-12.222656 5.664062h-8c-8.816406 0-15.9726562 7.132813-16 15.953126v.078124c.0234375 8.820313 7.179688 15.960938 16 15.960938h432.078125c8.789063-.042969 15.894531-7.164062 15.921875-15.953125v-.085937c-.027344-8.804688-7.15625-15.929688-15.960938-15.953126zm0 0" fill="#2e9989"/><path d="m448.039062.0078125h-144.039062v223.9999995h144.039062c8.804688-.023437 15.9375-7.15625 15.960938-15.960937v-.085937c-.023438-8.804688-7.15625-15.9375-15.960938-15.960938h-7.144531c-8.039062.179688-15.046875-5.429688-16.636719-13.3125-.792968-4.648438.503907-9.410156 3.546876-13.011719 3.042968-3.601562 7.519531-5.679687 12.234374-5.675781h8c8.820313-.023438 15.960938-7.179688 15.960938-16v-.039062c0-8.820313-7.140625-15.980469-15.960938-16h-7.144531c-8.039062.175781-15.046875-5.429688-16.636719-13.3125-.792968-4.648438.503907-9.410157 3.546876-13.011719 3.042968-3.601563 7.519531-5.679688 12.234374-5.675781h8c8.820313-.023438 15.960938-7.179688 15.960938-16 0-8.820313-7.140625-15.980469-15.960938-16h-8c-4.714843.003906-9.191406-2.074219-12.234374-5.675782-3.042969-3.605468-4.339844-8.363281-3.546876-13.011718 1.589844-7.882813 8.597657-13.492188 16.636719-13.3125h7.144531c8.820313-.023438 15.960938-7.179688 15.960938-16-.027344-8.804688-7.15625-15.929688-15.960938-15.9531255zm0 0" fill="#ee1442"/><path d="m408 128.007812v64h32.894531c-8.039062.179688-15.046875-5.429687-16.636719-13.3125-.792968-4.648437.503907-9.410156 3.546876-13.011718 3.042968-3.601563 7.519531-5.679688 12.234374-5.675782h8c8.820313-.023437 15.960938-7.179687 15.960938-16v-.046874c0-8.820313-7.140625-15.980469-15.960938-16h-7.144531c-8.039062.175781-15.046875-5.429688-16.636719-13.3125-.792968-4.648438.503907-9.410157 3.546876-13.011719 3.042968-3.601563 7.519531-5.679688 12.234374-5.675781h8c8.820313-.023438 15.960938-7.179688 15.960938-16 0-8.820313-7.140625-15.980469-15.960938-16h-8c-4.714843.003906-9.191406-2.074219-12.234374-5.675782-3.042969-3.605468-4.339844-8.363281-3.546876-13.011718 1.589844-7.882813 8.597657-13.492188 16.636719-13.3125h7.144531c8.820313-.023438 15.960938-7.179688 15.960938-16-.023438-8.804688-7.15625-15.9375005-15.960938-15.960938h-144.039062v32h8c53.023438 0 96.003906 42.984375 96 96.007812zm0 0" fill="#ff6283"/><path d="m408 192.007812h-104v32h104zm0 0" fill="#a10022"/><path d="m232.222656 47.78125c6.25 6.25 6.25 16.378906 0 22.628906l-101.824218 101.824219c-6.246094 6.246094-16.378907 6.246094-22.625 0-6.25-6.25-6.25-16.378906 0-22.628906l101.824218-101.824219c6.246094-6.246094 16.378906-6.246094 22.625 0zm0 0" fill="#ee1442"/><path d="m139.089844 64.753906c0 11.042969-8.957032 20-20 20-11.046875 0-20-8.957031-20-20 0-11.046875 8.953125-20 20-20 11.042968 0 20 8.953125 20 20zm0 0" fill="#ee1442"/><path d="m235.257812 160.921875c0 11.042969-8.957031 20-20 20-11.046874 0-20-8.957031-20-20 0-11.046875 8.953126-20 20-20 11.042969 0 20 8.953125 20 20zm0 0" fill="#ee1442"/><g fill="#ffac0d"><path d="m304 104.007812c-4.417969 0-8-3.582031-8-8v-16c0-4.417968 3.582031-8 8-8s8 3.582032 8 8v16c0 4.417969-3.582031 8-8 8zm0 0"/><path d="m304 152.007812c-4.417969 0-8-3.582031-8-8v-16c0-4.417968 3.582031-8 8-8s8 3.582032 8 8v16c0 4.417969-3.582031 8-8 8zm0 0"/><path d="m296 48.007812c0 4.417969 3.582031 8 8 8s8-3.582031 8-8v-47.9999995h-16zm0 0"/><path d="m312 176.007812c0-4.417968-3.582031-8-8-8s-8 3.582032-8 8v48h16zm0 0"/></g><path d="m425.96875 360.824219c-10.199219-18.089844-30.796875-27.667969-51.199219-23.808594-8.542969 1.640625-16.46875 5.601563-22.90625 11.449219l-17.597656-42.488282c-5.941406 2.679688-12.5625 3.480469-18.96875 2.296876-3.746094-.800782-7.535156 1.167968-9.03125 4.695312l-1.875 4.511719 34.539063 83.28125c9.617187 24.179687 36.390624 36.707031 61.117187 28.589843 13.304687-4.71875 23.851563-15.054687 28.847656-28.253906 4.992188-13.203125 3.921875-27.933594-2.925781-40.273437zm-35.855469 38.070312c-8.164062 3.386719-17.527343-.492187-20.910156-8.65625-3.382813-8.160156.496094-17.523437 8.660156-20.90625 8.164063-3.378906 17.523438.496094 20.90625 8.660157 3.378907 8.164062-.496093 17.519531-8.65625 20.902343zm0 0" fill="#fd0"/><path d="m274.558594 305.976562 29.875-72.113281-4.082032-9.855469h-69.273437l26.953125 65.070313c3.136719 7.546875 9.054688 13.597656 16.527344 16.898437zm0 0" fill="#fd0"/><path d="m258.03125 289.078125c3.136719 7.546875 9.054688 13.597656 16.527344 16.898437l29.875-72.113281-4.082032-9.855469-44.703124 59.3125zm0 0" fill="#ffac0d"/><path d="m231.078125 224.007812 9.945313 24h57.550781l5.859375-14.144531-4.082032-9.855469zm0 0" fill="#ffac0d"/><path d="m355.199219 124.160156c-3.195313 0-6.078125 1.925782-7.304688 4.878906l-90.925781 219.425782c-6.4375-5.847656-14.363281-9.808594-22.90625-11.449219-24.636719-4.761719-48.785156 10.253906-55.410156 34.457031-6.621094 24.207032 6.515625 49.425782 30.148437 57.871094 24.730469 8.128906 51.519531-4.394531 61.144531-28.582031l36.367188-87.800781c1.457031-3.484376 5.171875-5.453126 8.871094-4.695313 14.9375 2.890625 29.847656-5.136719 35.65625-19.203125l43.824218-105.804688c5.453126-13.1875 3.972657-28.222656-3.953124-40.089843-7.921876-11.863281-21.242188-18.996094-35.511719-19.007813zm-115.535157 266.070313c-3.382812 8.164062-12.742187 12.042969-20.90625 8.660156-8.164062-3.382813-12.039062-12.742187-8.65625-20.90625 3.382813-8.164063 12.742188-12.039063 20.90625-8.65625 8.164063 3.382813 12.039063 12.742187 8.65625 20.902344zm0 0" fill="#fd0"/><path d="m334.304688 305.976562c-5.941407 2.679688-12.558594 3.480469-18.96875 2.296876-3.746094-.800782-7.535157 1.167968-9.03125 4.695312l-1.871094 4.511719 17.320312 41.816406 7.871094-18.992187c5.839844-.78125 11.542969-2.359376 16.949219-4.695313zm0 0" fill="#ffac0d"/><path d="m328 272.007812c0 4.417969-3.582031 8-8 8s-8-3.582031-8-8c0-4.417968 3.582031-8 8-8s8 3.582032 8 8zm0 0" fill="#33b1a2"/></svg>