<?xml version="1.0" encoding="utf-8"?>
<!-- Generator: Adobe Illustrator 16.0.0, SVG Export Plug-In . SVG Version: 6.00 Build 0)  -->
<!DOCTYPE svg PUBLIC "-//W3C//DTD SVG 1.1//EN" "http://www.w3.org/Graphics/SVG/1.1/DTD/svg11.dtd">
<svg version="1.1" id="Layer_1" xmlns="http://www.w3.org/2000/svg" xmlns:xlink="http://www.w3.org/1999/xlink" x="0px" y="0px"
	 width="40px" height="40px" viewBox="0 0 900 900" enable-background="new 0 0 900 900" xml:space="preserve">
<path fill="#475993" d="M778.719,0H121.281C54.303,0,0.004,54.297,0.004,121.277v657.442c0,66.98,54.297,121.276,121.277,121.276
	h324.245l0.553-321.609h-83.555c-10.858,0-19.671-8.78-19.713-19.639l-0.4-103.668c-0.042-10.918,8.797-19.79,19.715-19.79h83.402
	v-100.17c0-116.246,70.996-179.542,174.695-179.542h85.093c10.887,0,19.716,8.826,19.716,19.715v87.414
	c0,10.885-8.822,19.709-19.705,19.716l-52.22,0.024c-56.396,0-67.315,26.798-67.315,66.126v86.72h123.919
	c11.808,0,20.968,10.311,19.577,22.036L717,560.995c-1.175,9.921-9.588,17.396-19.576,17.396H586.345L585.792,900h192.931
	c66.979,0,121.275-54.297,121.275-121.274V121.277C899.996,54.297,845.699,0,778.719,0z"/>
</svg>
