<?xml version="1.0" encoding="utf-8"?>
<!-- Generator: Adobe Illustrator 16.0.0, SVG Export Plug-In . SVG Version: 6.00 Build 0)  -->
<!DOCTYPE svg PUBLIC "-//W3C//DTD SVG 1.1//EN" "http://www.w3.org/Graphics/SVG/1.1/DTD/svg11.dtd">
<svg version="1.1" id="Google" xmlns="http://www.w3.org/2000/svg" xmlns:xlink="http://www.w3.org/1999/xlink" x="0px" y="0px"
	 width="40px" height="40px" viewBox="0 0 900 900" enable-background="new 0 0 900 900" xml:space="preserve">
<path fill="#F04B39" d="M876,766c0,60.751-49.248,110-110,110H134c-60.751,0-110-49.249-110-110V134C24,73.249,73.249,24,134,24h632
	c60.752,0,110,49.249,110,110V766z"/>
<g>
	<path fill="#FFFFFF" d="M381.752,480.202h71.491c-12.549,35.479-46.536,60.916-86.326,60.622
		c-48.28-0.356-88.2-38.979-90.074-87.224c-2.009-51.714,39.48-94.427,90.756-94.427c23.446,0,44.841,8.934,60.971,23.571
		c3.82,3.468,9.636,3.49,13.394-0.047l26.257-24.713c4.106-3.866,4.121-10.393,0.027-14.272
		c-25.58-24.234-59.895-39.339-97.735-40.078c-80.709-1.576-148.741,64.598-149.303,145.322
		c-0.567,81.33,65.191,147.438,146.389,147.438c78.087,0,141.876-61.141,146.15-138.159c0.113-0.966,0.188-33.6,0.188-33.6H381.752
		c-5.418,0-9.81,4.392-9.81,9.81v35.949C371.942,475.811,376.335,480.202,381.752,480.202z"/>
	<path fill="#FFFFFF" d="M635.073,427.898v-35.123c0-4.748-3.848-8.597-8.597-8.597h-29.562c-4.747,0-8.597,3.849-8.597,8.597
		v35.123h-35.122c-4.748,0-8.597,3.849-8.597,8.597v29.562c0,4.748,3.849,8.597,8.597,8.597h35.122v35.123
		c0,4.748,3.85,8.597,8.597,8.597h29.562c4.749,0,8.597-3.849,8.597-8.597v-35.123h35.123c4.748,0,8.597-3.849,8.597-8.597v-29.562
		c0-4.748-3.849-8.597-8.597-8.597H635.073L635.073,427.898z"/>
</g>
</svg>
