<?xml version="1.0" encoding="utf-8"?>
<!-- Generator: Adobe Illustrator 16.0.0, SVG Export Plug-In . SVG Version: 6.00 Build 0)  -->
<!DOCTYPE svg PUBLIC "-//W3C//DTD SVG 1.1//EN" "http://www.w3.org/Graphics/SVG/1.1/DTD/svg11.dtd">
<svg xmlns="http://www.w3.org/2000/svg" viewBox="615 62 465 442.936"><g transform="translate(615 50.968)"><path d="M385.968,275.332a46.99,46.99,0,0,0-93.493,6.757V406.976a46.991,46.991,0,0,0,93.493,6.757,33.54,33.54,0,0,0,26.477-32.742V308.074A33.539,33.539,0,0,0,385.968,275.332ZM397.445,380.99a18.5,18.5,0,0,1-10.984,16.88V332.089a7.5,7.5,0,0,0-15,0v74.887a31.993,31.993,0,0,1-63.986,0V282.089a31.993,31.993,0,0,1,63.986,0v20a7.5,7.5,0,0,0,15,0V291.194a18.5,18.5,0,0,1,10.984,16.879Z"></path><path d="M125.532,235.1a47.06,47.06,0,0,0-46.5,40.236,33.539,33.539,0,0,0-26.477,32.741V380.99a33.539,33.539,0,0,0,26.477,32.742,46.991,46.991,0,0,0,93.493-6.757V282.089A47.046,47.046,0,0,0,125.532,235.1Zm31.993,171.88a31.993,31.993,0,0,1-63.986,0V332.089a7.5,7.5,0,0,0-15,0V397.87a18.5,18.5,0,0,1-10.984-16.88V308.073a18.5,18.5,0,0,1,10.984-16.879v10.895a7.5,7.5,0,0,0,15,0v-20a31.993,31.993,0,1,1,63.986,0Z"></path><path d="M396.9,79.129A232.5,232.5,0,0,0,0,243.532a7.5,7.5,0,0,0,7.5,7.5h5.173a7.5,7.5,0,0,0,2.439-14.594A217.5,217.5,0,0,1,386.3,89.736a215.98,215.98,0,0,1,63.592,146.7,7.5,7.5,0,0,0,2.44,14.594H457.5a7.5,7.5,0,0,0,7.5-7.5A230.98,230.98,0,0,0,396.9,79.129Z"></path><path d="M232.5,36.2c-114.32,0-207.327,93.007-207.327,207.328a208.192,208.192,0,0,0,5.464,47.46v53.54a7.5,7.5,0,0,0,15,0V290.116a7.517,7.517,0,0,0-.205-1.743,193.135,193.135,0,0,1-5.259-44.841C40.173,137.482,126.45,51.2,232.5,51.2s192.327,86.278,192.327,192.328a193.134,193.134,0,0,1-5.259,44.841,7.518,7.518,0,0,0-.2,1.743v54.416a7.5,7.5,0,0,0,15,0v-53.54a208.192,208.192,0,0,0,5.464-47.46C439.827,129.211,346.82,36.2,232.5,36.2Z"></path></g></svg>