<?xml version="1.0" encoding="utf-8"?>
<!-- Generator: Adobe Illustrator 16.0.0, SVG Export Plug-In . SVG Version: 6.00 Build 0)  -->
<!DOCTYPE svg PUBLIC "-//W3C//DTD SVG 1.1//EN" "http://www.w3.org/Graphics/SVG/1.1/DTD/svg11.dtd">
<svg version="1.1" xmlns="http://www.w3.org/2000/svg" xmlns:xlink="http://www.w3.org/1999/xlink" x="0px" y="0px" width="40px"
	 height="40px" viewBox="0 0 900 900" enable-background="new 0 0 900 900" xml:space="preserve">
<g id="Google" display="none">
	<path display="inline" fill="#F04B39" d="M876,766c0,60.751-49.248,110-110,110H134c-60.751,0-110-49.249-110-110V134
		C24,73.249,73.249,24,134,24h632c60.752,0,110,49.249,110,110V766z"/>
	<g display="inline">
		<path fill="#FFFFFF" d="M381.752,480.202h71.491c-12.549,35.479-46.536,60.916-86.326,60.622
			c-48.28-0.356-88.2-38.979-90.074-87.224c-2.009-51.714,39.48-94.427,90.756-94.427c23.446,0,44.841,8.934,60.971,23.571
			c3.82,3.468,9.636,3.49,13.394-0.047l26.257-24.713c4.106-3.866,4.121-10.393,0.027-14.272
			c-25.58-24.234-59.895-39.339-97.735-40.078c-80.709-1.576-148.741,64.598-149.303,145.322
			c-0.567,81.33,65.191,147.438,146.389,147.438c78.087,0,141.876-61.141,146.15-138.159c0.113-0.966,0.188-33.6,0.188-33.6H381.752
			c-5.418,0-9.81,4.392-9.81,9.81v35.949C371.942,475.811,376.335,480.202,381.752,480.202z"/>
		<path fill="#FFFFFF" d="M635.073,427.898v-35.123c0-4.748-3.848-8.597-8.597-8.597h-29.562c-4.747,0-8.597,3.849-8.597,8.597
			v35.123h-35.122c-4.748,0-8.597,3.849-8.597,8.597v29.562c0,4.748,3.849,8.597,8.597,8.597h35.122v35.123
			c0,4.748,3.85,8.597,8.597,8.597h29.562c4.749,0,8.597-3.849,8.597-8.597v-35.123h35.123c4.748,0,8.597-3.849,8.597-8.597v-29.562
			c0-4.748-3.849-8.597-8.597-8.597H635.073L635.073,427.898z"/>
	</g>
</g>
<g id="Instagram">
	<g>
		<g>
			<defs>
				<path id="SVGID_1_" d="M876,766c0,60.751-49.248,110-110,110H134c-60.751,0-110-49.249-110-110V134C24,73.249,73.249,24,134,24
					h632c60.752,0,110,49.249,110,110V766z"/>
			</defs>
			<clipPath id="SVGID_2_">
				<use xlink:href="#SVGID_1_"  overflow="visible"/>
			</clipPath>
			<polygon clip-path="url(#SVGID_2_)" fill="#FEC111" points="24,811.563 88.436,876 24,876 			"/>
			<polygon clip-path="url(#SVGID_2_)" fill="#FEC111" points="24,806.696 93.304,876 88.437,876 24,811.563 			"/>
			<polygon clip-path="url(#SVGID_2_)" fill="#FEC012" points="24,801.828 98.172,876 93.304,876 24,806.696 			"/>
			<polygon clip-path="url(#SVGID_2_)" fill="#FDBF12" points="24,796.961 103.039,876 98.172,876 24,801.828 			"/>
			<polygon clip-path="url(#SVGID_2_)" fill="#FDBF13" points="24,792.093 107.907,876 103.039,876 24,796.961 			"/>
			<polygon clip-path="url(#SVGID_2_)" fill="#FDBE14" points="24,787.226 112.774,876 107.907,876 24,792.093 			"/>
			<polygon clip-path="url(#SVGID_2_)" fill="#FDBD14" points="24,782.357 117.643,876 112.774,876 24,787.226 			"/>
			<polygon clip-path="url(#SVGID_2_)" fill="#FDBC15" points="24,777.49 122.51,876 117.643,876 24,782.357 			"/>
			<polygon clip-path="url(#SVGID_2_)" fill="#FDBC16" points="24,772.623 127.377,876 122.51,876 24,777.49 			"/>
			<polygon clip-path="url(#SVGID_2_)" fill="#FDBB16" points="24,767.755 132.245,876 127.377,876 24,772.623 			"/>
			<polygon clip-path="url(#SVGID_2_)" fill="#FDBA17" points="24,762.888 137.112,876 132.245,876 24,767.755 			"/>
			<polygon clip-path="url(#SVGID_2_)" fill="#FDBA18" points="24,758.02 141.98,876 137.112,876 24,762.888 			"/>
			<polygon clip-path="url(#SVGID_2_)" fill="#FCB918" points="24,753.152 146.848,876 141.98,876 24,758.02 			"/>
			<polygon clip-path="url(#SVGID_2_)" fill="#FCB819" points="24,748.284 151.715,876 146.848,876 24,753.152 			"/>
			<polygon clip-path="url(#SVGID_2_)" fill="#FCB719" points="24,743.417 156.583,876 151.715,876 24,748.284 			"/>
			<polygon clip-path="url(#SVGID_2_)" fill="#FCB71A" points="24,738.55 161.451,876 156.583,876 24,743.417 			"/>
			<polygon clip-path="url(#SVGID_2_)" fill="#FCB61B" points="24,733.682 166.318,876 161.451,876 24,738.55 			"/>
			<polygon clip-path="url(#SVGID_2_)" fill="#FCB51B" points="24,728.814 171.186,876 166.318,876 24,733.682 			"/>
			<polygon clip-path="url(#SVGID_2_)" fill="#FCB41C" points="24,723.946 176.053,876 171.186,876 24,728.814 			"/>
			<polygon clip-path="url(#SVGID_2_)" fill="#FCB41C" points="24,719.079 180.921,876 176.053,876 24,723.946 			"/>
			<polygon clip-path="url(#SVGID_2_)" fill="#FBB31D" points="24,714.212 185.789,876 180.921,876 24,719.079 			"/>
			<polygon clip-path="url(#SVGID_2_)" fill="#FBB21D" points="24,709.344 190.656,876 185.789,876 24,714.212 			"/>
			<polygon clip-path="url(#SVGID_2_)" fill="#FBB11E" points="24,704.477 195.523,876 190.656,876 24,709.344 			"/>
			<polygon clip-path="url(#SVGID_2_)" fill="#FBB11E" points="24,699.608 200.392,876 195.523,876 24,704.477 			"/>
			<polygon clip-path="url(#SVGID_2_)" fill="#FBB01F" points="24,694.741 205.259,876 200.392,876 24,699.608 			"/>
			<polygon clip-path="url(#SVGID_2_)" fill="#FBAF1F" points="24,689.873 210.127,876 205.259,876 24,694.741 			"/>
			<polygon clip-path="url(#SVGID_2_)" fill="#FBAE1F" points="24,685.006 214.994,876 210.127,876 24,689.873 			"/>
			<polygon clip-path="url(#SVGID_2_)" fill="#FBAE20" points="24,680.139 219.861,876 214.994,876 24,685.006 			"/>
			<polygon clip-path="url(#SVGID_2_)" fill="#FBAD20" points="24,675.271 224.729,876 219.861,876 24,680.139 			"/>
			<polygon clip-path="url(#SVGID_2_)" fill="#FAAC21" points="24,670.403 229.597,876 224.729,876 24,675.271 			"/>
			<polygon clip-path="url(#SVGID_2_)" fill="#FAAB21" points="24,665.535 234.465,876 229.597,876 24,670.403 			"/>
			<polygon clip-path="url(#SVGID_2_)" fill="#FAAB22" points="24,660.668 239.332,876 234.465,876 24,665.535 			"/>
			<polygon clip-path="url(#SVGID_2_)" fill="#FAAA22" points="24,655.8 244.2,876 239.332,876 24,660.668 			"/>
			<polygon clip-path="url(#SVGID_2_)" fill="#FAA922" points="24,650.933 249.067,876 244.2,876 24,655.8 			"/>
			<polygon clip-path="url(#SVGID_2_)" fill="#FAA923" points="24,646.065 253.935,876 249.067,876 24,650.933 			"/>
			<polygon clip-path="url(#SVGID_2_)" fill="#FAA823" points="24,641.197 258.803,876 253.935,876 24,646.065 			"/>
			<polygon clip-path="url(#SVGID_2_)" fill="#FAA723" points="24,636.33 263.67,876 258.803,876 24,641.197 			"/>
			<polygon clip-path="url(#SVGID_2_)" fill="#FAA624" points="24,631.462 268.538,876 263.67,876 24,636.33 			"/>
			<polygon clip-path="url(#SVGID_2_)" fill="#FAA624" points="24,626.595 273.405,876 268.538,876 24,631.462 			"/>
			<polygon clip-path="url(#SVGID_2_)" fill="#F9A524" points="24,621.727 278.273,876 273.405,876 24,626.595 			"/>
			<polygon clip-path="url(#SVGID_2_)" fill="#F9A425" points="24,616.859 283.141,876 278.273,876 24,621.727 			"/>
			<polygon clip-path="url(#SVGID_2_)" fill="#F9A425" points="24,611.992 288.008,876 283.141,876 24,616.859 			"/>
			<polygon clip-path="url(#SVGID_2_)" fill="#F9A325" points="24,607.124 292.876,876 288.008,876 24,611.992 			"/>
			<polygon clip-path="url(#SVGID_2_)" fill="#F9A226" points="24,602.257 297.744,876 292.876,876 24,607.124 			"/>
			<polygon clip-path="url(#SVGID_2_)" fill="#F9A126" points="24,597.389 302.611,876 297.744,876 24,602.257 			"/>
			<polygon clip-path="url(#SVGID_2_)" fill="#F9A126" points="24,592.521 307.479,876 302.611,876 24,597.389 			"/>
			<polygon clip-path="url(#SVGID_2_)" fill="#F9A027" points="24,587.653 312.346,876 307.479,876 24,592.521 			"/>
			<polygon clip-path="url(#SVGID_2_)" fill="#F99F27" points="24,582.786 317.214,876 312.346,876 24,587.653 			"/>
			<polygon clip-path="url(#SVGID_2_)" fill="#F89F27" points="24,577.919 322.082,876 317.214,876 24,582.786 			"/>
			<polygon clip-path="url(#SVGID_2_)" fill="#F89E28" points="24,573.051 326.949,876 322.082,876 24,577.919 			"/>
			<polygon clip-path="url(#SVGID_2_)" fill="#F89D28" points="24,568.184 331.816,876 326.949,876 24,573.051 			"/>
			<polygon clip-path="url(#SVGID_2_)" fill="#F89C28" points="24,563.315 336.684,876 331.816,876 24,568.184 			"/>
			<polygon clip-path="url(#SVGID_2_)" fill="#F89C29" points="24,558.448 341.552,876 336.684,876 24,563.315 			"/>
			<polygon clip-path="url(#SVGID_2_)" fill="#F89B29" points="24,553.58 346.42,876 341.552,876 24,558.448 			"/>
			<polygon clip-path="url(#SVGID_2_)" fill="#F89A29" points="24,548.713 351.287,876 346.42,876 24,553.58 			"/>
			<polygon clip-path="url(#SVGID_2_)" fill="#F89A29" points="24,543.846 356.154,876 351.287,876 24,548.713 			"/>
			<polygon clip-path="url(#SVGID_2_)" fill="#F8992A" points="24,538.978 361.022,876 356.154,876 24,543.846 			"/>
			<polygon clip-path="url(#SVGID_2_)" fill="#F8982A" points="24,534.11 365.89,876 361.022,876 24,538.978 			"/>
			<polygon clip-path="url(#SVGID_2_)" fill="#F7972A" points="24,529.242 370.758,876 365.89,876 24,534.11 			"/>
			<polygon clip-path="url(#SVGID_2_)" fill="#F7972A" points="24,524.375 375.625,876 370.758,876 24,529.242 			"/>
			<polygon clip-path="url(#SVGID_2_)" fill="#F7962B" points="24,519.508 380.492,876 375.625,876 24,524.375 			"/>
			<polygon clip-path="url(#SVGID_2_)" fill="#F7952B" points="24,514.64 385.36,876 380.492,876 24,519.508 			"/>
			<polygon clip-path="url(#SVGID_2_)" fill="#F7952B" points="24,509.772 390.228,876 385.36,876 24,514.64 			"/>
			<polygon clip-path="url(#SVGID_2_)" fill="#F7942B" points="24,504.904 395.096,876 390.228,876 24,509.772 			"/>
			<polygon clip-path="url(#SVGID_2_)" fill="#F7932C" points="24,500.037 399.963,876 395.096,876 24,504.904 			"/>
			<polygon clip-path="url(#SVGID_2_)" fill="#F7932C" points="24,495.169 404.831,876 399.963,876 24,500.037 			"/>
			<polygon clip-path="url(#SVGID_2_)" fill="#F7922C" points="24,490.302 409.698,876 404.831,876 24,495.169 			"/>
			<polygon clip-path="url(#SVGID_2_)" fill="#F7912C" points="24,485.435 414.566,876 409.698,876 24,490.302 			"/>
			<polygon clip-path="url(#SVGID_2_)" fill="#F7902D" points="24,480.566 419.434,876 414.566,876 24,485.435 			"/>
			<polygon clip-path="url(#SVGID_2_)" fill="#F6902D" points="24,475.699 424.301,876 419.434,876 24,480.566 			"/>
			<polygon clip-path="url(#SVGID_2_)" fill="#F68F2D" points="24,470.831 429.168,876 424.301,876 24,475.699 			"/>
			<polygon clip-path="url(#SVGID_2_)" fill="#F68E2D" points="24,465.964 434.036,876 429.168,876 24,470.831 			"/>
			<polygon clip-path="url(#SVGID_2_)" fill="#F68E2D" points="24,461.096 438.904,876 434.036,876 24,465.964 			"/>
			<polygon clip-path="url(#SVGID_2_)" fill="#F68D2E" points="24,456.229 443.771,876 438.904,876 24,461.096 			"/>
			<polygon clip-path="url(#SVGID_2_)" fill="#F68C2E" points="24,451.361 448.639,876 443.771,876 24,456.229 			"/>
			<polygon clip-path="url(#SVGID_2_)" fill="#F68C2E" points="24,446.493 453.507,876 448.639,876 24,451.361 			"/>
			<polygon clip-path="url(#SVGID_2_)" fill="#F68B2E" points="24,441.626 458.375,876 453.507,876 24,446.493 			"/>
			<polygon clip-path="url(#SVGID_2_)" fill="#F68A2F" points="24,436.758 463.242,876 458.375,876 24,441.626 			"/>
			<polygon clip-path="url(#SVGID_2_)" fill="#F68A2F" points="24,431.891 468.109,876 463.242,876 24,436.758 			"/>
			<polygon clip-path="url(#SVGID_2_)" fill="#F6892F" points="24,427.022 472.977,876 468.109,876 24,431.891 			"/>
			<polygon clip-path="url(#SVGID_2_)" fill="#F6882F" points="24,422.155 477.845,876 472.977,876 24,427.022 			"/>
			<polygon clip-path="url(#SVGID_2_)" fill="#F5882F" points="24,417.288 482.713,876 477.845,876 24,422.155 			"/>
			<polygon clip-path="url(#SVGID_2_)" fill="#F58730" points="24,412.42 487.58,876 482.713,876 24,417.288 			"/>
			<polygon clip-path="url(#SVGID_2_)" fill="#F58630" points="24,407.553 492.447,876 487.58,876 24,412.42 			"/>
			<polygon clip-path="url(#SVGID_2_)" fill="#F58530" points="24,402.685 497.314,876 492.447,876 24,407.553 			"/>
			<polygon clip-path="url(#SVGID_2_)" fill="#F58530" points="24,397.817 502.183,876 497.314,876 24,402.685 			"/>
			<polygon clip-path="url(#SVGID_2_)" fill="#F58430" points="24,392.949 507.051,876 502.183,876 24,397.817 			"/>
			<polygon clip-path="url(#SVGID_2_)" fill="#F58330" points="24,388.082 511.918,876 507.051,876 24,392.949 			"/>
			<polygon clip-path="url(#SVGID_2_)" fill="#F58331" points="24,383.215 516.785,876 511.918,876 24,388.082 			"/>
			<polygon clip-path="url(#SVGID_2_)" fill="#F58231" points="24,378.347 521.653,876 516.785,876 24,383.215 			"/>
			<polygon clip-path="url(#SVGID_2_)" fill="#F58131" points="24,373.479 526.521,876 521.653,876 24,378.347 			"/>
			<polygon clip-path="url(#SVGID_2_)" fill="#F58031" points="24,368.611 531.389,876 526.521,876 24,373.479 			"/>
			<polygon clip-path="url(#SVGID_2_)" fill="#F48031" points="24,363.744 536.256,876 531.389,876 24,368.611 			"/>
			<polygon clip-path="url(#SVGID_2_)" fill="#F47F31" points="24,358.876 541.123,876 536.256,876 24,363.744 			"/>
			<polygon clip-path="url(#SVGID_2_)" fill="#F47E31" points="24,354.009 545.991,876 541.123,876 24,358.876 			"/>
			<polygon clip-path="url(#SVGID_2_)" fill="#F47E32" points="24,349.142 550.859,876 545.991,876 24,354.009 			"/>
			<polygon clip-path="url(#SVGID_2_)" fill="#F47D32" points="24,344.273 555.727,876 550.859,876 24,349.142 			"/>
			<polygon clip-path="url(#SVGID_2_)" fill="#F47C32" points="24,339.406 560.594,876 555.727,876 24,344.273 			"/>
			<polygon clip-path="url(#SVGID_2_)" fill="#F47B32" points="24,334.538 565.461,876 560.594,876 24,339.406 			"/>
			<polygon clip-path="url(#SVGID_2_)" fill="#F47B32" points="24,329.671 570.329,876 565.461,876 24,334.538 			"/>
			<polygon clip-path="url(#SVGID_2_)" fill="#F47A32" points="24,324.804 575.197,876 570.329,876 24,329.671 			"/>
			<polygon clip-path="url(#SVGID_2_)" fill="#F47932" points="24,319.936 580.064,876 575.197,876 24,324.804 			"/>
			<polygon clip-path="url(#SVGID_2_)" fill="#F47933" points="24,315.068 584.932,876 580.064,876 24,319.936 			"/>
			<polygon clip-path="url(#SVGID_2_)" fill="#F47833" points="24,310.2 589.799,876 584.932,876 24,315.068 			"/>
			<polygon clip-path="url(#SVGID_2_)" fill="#F47733" points="24,305.333 594.667,876 589.799,876 24,310.2 			"/>
			<polygon clip-path="url(#SVGID_2_)" fill="#F37633" points="24,300.465 599.535,876 594.667,876 24,305.333 			"/>
			<polygon clip-path="url(#SVGID_2_)" fill="#F37633" points="24,295.598 604.402,876 599.535,876 24,300.465 			"/>
			<polygon clip-path="url(#SVGID_2_)" fill="#F37533" points="24,290.73 609.27,876 604.402,876 24,295.598 			"/>
			<polygon clip-path="url(#SVGID_2_)" fill="#F37433" points="24,285.862 614.138,876 609.27,876 24,290.73 			"/>
			<polygon clip-path="url(#SVGID_2_)" fill="#F37333" points="24,280.995 619.006,876 614.138,876 24,285.862 			"/>
			<polygon clip-path="url(#SVGID_2_)" fill="#F37334" points="24,276.127 623.873,876 619.006,876 24,280.995 			"/>
			<polygon clip-path="url(#SVGID_2_)" fill="#F37234" points="24,271.26 628.74,876 623.873,876 24,276.127 			"/>
			<polygon clip-path="url(#SVGID_2_)" fill="#F37134" points="24,266.392 633.607,876 628.74,876 24,271.26 			"/>
			<polygon clip-path="url(#SVGID_2_)" fill="#F37034" points="24,261.524 638.476,876 633.607,876 24,266.392 			"/>
			<polygon clip-path="url(#SVGID_2_)" fill="#F37034" points="24,256.657 643.344,876 638.476,876 24,261.524 			"/>
			<polygon clip-path="url(#SVGID_2_)" fill="#F36F34" points="24,251.789 648.211,876 643.344,876 24,256.657 			"/>
			<polygon clip-path="url(#SVGID_2_)" fill="#F36E34" points="24,246.922 653.078,876 648.211,876 24,251.789 			"/>
			<polygon clip-path="url(#SVGID_2_)" fill="#F36D34" points="24,242.054 657.945,876 653.078,876 24,246.922 			"/>
			<polygon clip-path="url(#SVGID_2_)" fill="#F26C35" points="24,237.187 662.813,876 657.945,876 24,242.054 			"/>
			<polygon clip-path="url(#SVGID_2_)" fill="#F26C35" points="24,232.318 667.682,876 662.813,876 24,237.187 			"/>
			<polygon clip-path="url(#SVGID_2_)" fill="#F26B35" points="24,227.451 672.549,876 667.682,876 24,232.318 			"/>
			<polygon clip-path="url(#SVGID_2_)" fill="#F26A35" points="24,222.584 677.416,876 672.549,876 24,227.451 			"/>
			<polygon clip-path="url(#SVGID_2_)" fill="#F26935" points="24,217.716 682.284,876 677.416,876 24,222.584 			"/>
			<polygon clip-path="url(#SVGID_2_)" fill="#F26835" points="24,212.849 687.151,876 682.284,876 24,217.716 			"/>
			<polygon clip-path="url(#SVGID_2_)" fill="#F26735" points="24,207.98 692.02,876 687.151,876 24,212.849 			"/>
			<polygon clip-path="url(#SVGID_2_)" fill="#F26735" points="24,203.113 696.887,876 692.02,876 24,207.98 			"/>
			<polygon clip-path="url(#SVGID_2_)" fill="#F26635" points="24,198.245 701.754,876 696.887,876 24,203.113 			"/>
			<polygon clip-path="url(#SVGID_2_)" fill="#F26535" points="24,193.378 706.622,876 701.754,876 24,198.245 			"/>
			<polygon clip-path="url(#SVGID_2_)" fill="#F26435" points="24,188.511 711.49,876 706.622,876 24,193.378 			"/>
			<polygon clip-path="url(#SVGID_2_)" fill="#F26336" points="24,183.643 716.357,876 711.49,876 24,188.511 			"/>
			<polygon clip-path="url(#SVGID_2_)" fill="#F16236" points="24,178.775 721.225,876 716.357,876 24,183.643 			"/>
			<polygon clip-path="url(#SVGID_2_)" fill="#F16236" points="24,173.907 726.092,876 721.225,876 24,178.775 			"/>
			<polygon clip-path="url(#SVGID_2_)" fill="#F16136" points="24,169.04 730.96,876 726.092,876 24,173.907 			"/>
			<polygon clip-path="url(#SVGID_2_)" fill="#F16036" points="24,164.172 735.828,876 730.96,876 24,169.04 			"/>
			<polygon clip-path="url(#SVGID_2_)" fill="#F15F36" points="24,159.305 740.695,876 735.828,876 24,164.172 			"/>
			<polygon clip-path="url(#SVGID_2_)" fill="#F15E36" points="24,154.438 745.563,876 740.695,876 24,159.305 			"/>
			<polygon clip-path="url(#SVGID_2_)" fill="#F15D36" points="24,149.569 750.43,876 745.563,876 24,154.438 			"/>
			<polygon clip-path="url(#SVGID_2_)" fill="#F15C36" points="24,144.702 755.298,876 750.43,876 24,149.569 			"/>
			<polygon clip-path="url(#SVGID_2_)" fill="#F15B36" points="24,139.834 760.166,876 755.298,876 24,144.702 			"/>
			<polygon clip-path="url(#SVGID_2_)" fill="#F15B36" points="24,134.967 765.033,876 760.166,876 24,139.834 			"/>
			<polygon clip-path="url(#SVGID_2_)" fill="#F15A37" points="24,130.1 769.9,876 765.033,876 24,134.967 			"/>
			<polygon clip-path="url(#SVGID_2_)" fill="#F15937" points="24,125.231 774.769,876 769.9,876 24,130.1 			"/>
			<polygon clip-path="url(#SVGID_2_)" fill="#F15837" points="24,120.364 779.637,876 774.769,876 24,125.231 			"/>
			<polygon clip-path="url(#SVGID_2_)" fill="#F15737" points="24,115.496 784.504,876 779.637,876 24,120.364 			"/>
			<polygon clip-path="url(#SVGID_2_)" fill="#F15637" points="24,110.629 789.371,876 784.504,876 24,115.496 			"/>
			<polygon clip-path="url(#SVGID_2_)" fill="#F05537" points="24,105.761 794.238,876 789.371,876 24,110.629 			"/>
			<polygon clip-path="url(#SVGID_2_)" fill="#F05437" points="24,100.894 799.106,876 794.238,876 24,105.761 			"/>
			<polygon clip-path="url(#SVGID_2_)" fill="#F05337" points="24,96.026 803.975,876 799.106,876 24,100.894 			"/>
			<polygon clip-path="url(#SVGID_2_)" fill="#F05237" points="24,91.158 808.842,876 803.975,876 24,96.026 			"/>
			<polygon clip-path="url(#SVGID_2_)" fill="#F05137" points="24,86.291 813.709,876 808.842,876 24,91.158 			"/>
			<polygon clip-path="url(#SVGID_2_)" fill="#F05037" points="24,81.423 818.576,876 813.709,876 24,86.291 			"/>
			<polygon clip-path="url(#SVGID_2_)" fill="#F04F37" points="24,76.556 823.444,876 818.576,876 24,81.423 			"/>
			<polygon clip-path="url(#SVGID_2_)" fill="#F04E37" points="24,71.688 828.313,876 823.444,876 24,76.556 			"/>
			<polygon clip-path="url(#SVGID_2_)" fill="#F04D37" points="24,70.42 25.8,68.62 831.38,874.2 829.58,876 828.313,876 24,71.688 
							"/>
			
				<rect x="428.086" y="-99.438" transform="matrix(-0.7071 0.7071 -0.7071 -0.7071 1066.2028 498.7511)" clip-path="url(#SVGID_2_)" fill="#F04C38" width="3.442" height="1139.262"/>
			
				<rect x="430.52" y="-101.872" transform="matrix(-0.7071 0.7071 -0.7071 -0.7071 1068.6372 492.8755)" clip-path="url(#SVGID_2_)" fill="#F04B38" width="3.442" height="1139.263"/>
			
				<rect x="432.954" y="-104.306" transform="matrix(-0.7071 0.7071 -0.7071 -0.7071 1071.0707 486.9989)" clip-path="url(#SVGID_2_)" fill="#F04A38" width="3.442" height="1139.262"/>
			
				<rect x="435.387" y="-106.739" transform="matrix(-0.7071 0.7071 -0.7071 -0.7071 1073.5043 481.1237)" clip-path="url(#SVGID_2_)" fill="#F04938" width="3.442" height="1139.262"/>
			
				<rect x="437.821" y="-109.173" transform="matrix(-0.7071 0.7071 -0.7071 -0.7071 1075.9381 475.2479)" clip-path="url(#SVGID_2_)" fill="#EF4838" width="3.442" height="1139.262"/>
			
				<rect x="440.254" y="-111.607" transform="matrix(-0.7071 0.7071 -0.7071 -0.7071 1078.3717 469.3727)" clip-path="url(#SVGID_2_)" fill="#EF4738" width="3.442" height="1139.262"/>
			
				<rect x="442.689" y="-114.041" transform="matrix(-0.7071 0.7071 -0.7071 -0.7071 1080.8064 463.4965)" clip-path="url(#SVGID_2_)" fill="#EF4538" width="3.442" height="1139.263"/>
			
				<rect x="445.123" y="-116.475" transform="matrix(-0.7071 0.7071 -0.7071 -0.7071 1083.2396 457.6205)" clip-path="url(#SVGID_2_)" fill="#EF4438" width="3.442" height="1139.262"/>
			
				<rect x="447.677" y="-118.616" transform="matrix(-0.7071 0.7071 -0.7071 -0.7071 1085.3807 452.4514)" clip-path="url(#SVGID_2_)" fill="#EF4438" width="2.615" height="1139.262"/>
			
				<rect x="449.526" y="-120.465" transform="matrix(-0.7071 0.7071 -0.7071 -0.7071 1087.2305 447.9874)" clip-path="url(#SVGID_2_)" fill="#EF4439" width="2.615" height="1139.263"/>
			
				<rect x="451.375" y="-122.314" transform="matrix(-0.7071 0.7071 -0.7071 -0.7071 1089.079 443.523)" clip-path="url(#SVGID_2_)" fill="#EE4439" width="2.615" height="1139.262"/>
			
				<rect x="453.225" y="-124.163" transform="matrix(-0.7071 0.7071 -0.7071 -0.7071 1090.9283 439.0582)" clip-path="url(#SVGID_2_)" fill="#ED443A" width="2.615" height="1139.262"/>
			
				<rect x="455.074" y="-126.012" transform="matrix(-0.7071 0.7071 -0.7071 -0.7071 1092.7772 434.5947)" clip-path="url(#SVGID_2_)" fill="#EC443B" width="2.615" height="1139.262"/>
			
				<rect x="456.923" y="-127.862" transform="matrix(-0.7071 0.7071 -0.7071 -0.7071 1094.6266 430.1299)" clip-path="url(#SVGID_2_)" fill="#EC443B" width="2.616" height="1139.262"/>
			
				<rect x="458.772" y="-129.711" transform="matrix(-0.7071 0.7071 -0.7071 -0.7071 1096.4757 425.6657)" clip-path="url(#SVGID_2_)" fill="#EB443C" width="2.615" height="1139.262"/>
			
				<rect x="460.621" y="-131.56" transform="matrix(-0.7071 0.7071 -0.7071 -0.7071 1098.3251 421.201)" clip-path="url(#SVGID_2_)" fill="#EB443C" width="2.615" height="1139.262"/>
			
				<rect x="462.471" y="-133.409" transform="matrix(-0.7071 0.7071 -0.7071 -0.7071 1100.1748 416.737)" clip-path="url(#SVGID_2_)" fill="#EA443D" width="2.615" height="1139.263"/>
			
				<rect x="464.32" y="-135.258" transform="matrix(-0.7071 0.7071 -0.7071 -0.7071 1102.0233 412.2726)" clip-path="url(#SVGID_2_)" fill="#EA443E" width="2.615" height="1139.262"/>
			
				<rect x="466.169" y="-137.108" transform="matrix(-0.7071 0.7071 -0.7071 -0.7071 1103.873 407.8087)" clip-path="url(#SVGID_2_)" fill="#E9443E" width="2.615" height="1139.263"/>
			
				<rect x="468.018" y="-138.957" transform="matrix(-0.7071 0.7071 -0.7071 -0.7071 1105.7216 403.3443)" clip-path="url(#SVGID_2_)" fill="#E9443F" width="2.615" height="1139.262"/>
			
				<rect x="469.867" y="-140.806" transform="matrix(-0.7071 0.7071 -0.7071 -0.7071 1107.5713 398.8803)" clip-path="url(#SVGID_2_)" fill="#E8443F" width="2.615" height="1139.263"/>
			<polygon clip-path="url(#SVGID_2_)" fill="#E84440" points="69.309,25.111 70.42,24 71.896,24 876,828.104 876,829.58 
				874.89,830.691 			"/>
			<polygon clip-path="url(#SVGID_2_)" fill="#E74441" points="75.595,24 876,824.404 876,828.104 71.896,24 			"/>
			<polygon clip-path="url(#SVGID_2_)" fill="#E74441" points="79.293,24 876,820.707 876,824.404 75.595,24 			"/>
			<polygon clip-path="url(#SVGID_2_)" fill="#E64442" points="82.992,24 876,817.008 876,820.707 79.293,24 			"/>
			<polygon clip-path="url(#SVGID_2_)" fill="#E64442" points="86.69,24 876,813.311 876,817.008 82.992,24 			"/>
			<polygon clip-path="url(#SVGID_2_)" fill="#E64443" points="90.389,24 876,809.611 876,813.311 86.69,24 			"/>
			<polygon clip-path="url(#SVGID_2_)" fill="#E54443" points="94.087,24 876,805.913 876,809.611 90.389,24 			"/>
			<polygon clip-path="url(#SVGID_2_)" fill="#E54444" points="97.785,24 876,802.215 876,805.913 94.087,24 			"/>
			<polygon clip-path="url(#SVGID_2_)" fill="#E44445" points="101.483,24 876,798.517 876,802.215 97.785,24 			"/>
			<polygon clip-path="url(#SVGID_2_)" fill="#E44445" points="105.182,24 876,794.818 876,798.517 101.483,24 			"/>
			<polygon clip-path="url(#SVGID_2_)" fill="#E34446" points="108.88,24 876,791.12 876,794.818 105.182,24 			"/>
			<polygon clip-path="url(#SVGID_2_)" fill="#E34446" points="112.578,24 876,787.422 876,791.12 108.88,24 			"/>
			<polygon clip-path="url(#SVGID_2_)" fill="#E34447" points="116.276,24 876,783.723 876,787.422 112.578,24 			"/>
			<polygon clip-path="url(#SVGID_2_)" fill="#E24447" points="119.975,24 876,780.025 876,783.723 116.276,24 			"/>
			<polygon clip-path="url(#SVGID_2_)" fill="#E24448" points="123.674,24 876,776.326 876,780.025 119.975,24 			"/>
			<polygon clip-path="url(#SVGID_2_)" fill="#E14448" points="127.372,24 876,772.629 876,776.326 123.674,24 			"/>
			<polygon clip-path="url(#SVGID_2_)" fill="#E14449" points="131.07,24 876,768.93 876,772.629 127.372,24 			"/>
			<polygon clip-path="url(#SVGID_2_)" fill="#E04449" points="134.769,24 876,765.231 876,768.93 131.07,24 			"/>
			<polygon clip-path="url(#SVGID_2_)" fill="#E0444A" points="138.467,24 876,761.533 876,765.231 134.769,24 			"/>
			<polygon clip-path="url(#SVGID_2_)" fill="#E0444B" points="142.165,24 876,757.835 876,761.533 138.467,24 			"/>
			<polygon clip-path="url(#SVGID_2_)" fill="#DF444B" points="145.863,24 876,754.137 876,757.835 142.165,24 			"/>
			<polygon clip-path="url(#SVGID_2_)" fill="#DF444C" points="149.562,24 876,750.438 876,754.137 145.863,24 			"/>
			<polygon clip-path="url(#SVGID_2_)" fill="#DE444C" points="153.26,24 876,746.74 876,750.438 149.562,24 			"/>
			<polygon clip-path="url(#SVGID_2_)" fill="#DE444D" points="156.958,24 876,743.041 876,746.74 153.26,24 			"/>
			<polygon clip-path="url(#SVGID_2_)" fill="#DE434D" points="160.657,24 876,739.344 876,743.041 156.958,24 			"/>
			<polygon clip-path="url(#SVGID_2_)" fill="#DD434E" points="164.355,24 876,735.645 876,739.344 160.657,24 			"/>
			<polygon clip-path="url(#SVGID_2_)" fill="#DD434E" points="168.054,24 876,731.947 876,735.645 164.355,24 			"/>
			<polygon clip-path="url(#SVGID_2_)" fill="#DC434F" points="171.752,24 876,728.248 876,731.947 168.054,24 			"/>
			<polygon clip-path="url(#SVGID_2_)" fill="#DC434F" points="175.45,24 876,724.55 876,728.248 171.752,24 			"/>
			<polygon clip-path="url(#SVGID_2_)" fill="#DB4350" points="179.148,24 876,720.852 876,724.55 175.45,24 			"/>
			<polygon clip-path="url(#SVGID_2_)" fill="#DB4350" points="182.847,24 876,717.153 876,720.852 179.148,24 			"/>
			<polygon clip-path="url(#SVGID_2_)" fill="#DB4351" points="186.545,24 876,713.455 876,717.153 182.847,24 			"/>
			<polygon clip-path="url(#SVGID_2_)" fill="#DA4351" points="190.243,24 876,709.757 876,713.455 186.545,24 			"/>
			<polygon clip-path="url(#SVGID_2_)" fill="#DA4352" points="193.941,24 876,706.059 876,709.757 190.243,24 			"/>
			<polygon clip-path="url(#SVGID_2_)" fill="#D94352" points="197.64,24 876,702.359 876,706.059 193.941,24 			"/>
			<polygon clip-path="url(#SVGID_2_)" fill="#D94352" points="201.339,24 876,698.662 876,702.359 197.64,24 			"/>
			<polygon clip-path="url(#SVGID_2_)" fill="#D84353" points="205.037,24 876,694.963 876,698.662 201.339,24 			"/>
			<polygon clip-path="url(#SVGID_2_)" fill="#D84353" points="208.735,24 876,691.266 876,694.963 205.037,24 			"/>
			<polygon clip-path="url(#SVGID_2_)" fill="#D74354" points="212.434,24 876,687.566 876,691.266 208.735,24 			"/>
			<polygon clip-path="url(#SVGID_2_)" fill="#D74354" points="216.132,24 876,683.868 876,687.566 212.434,24 			"/>
			<polygon clip-path="url(#SVGID_2_)" fill="#D74355" points="219.83,24 876,680.17 876,683.868 216.132,24 			"/>
			<polygon clip-path="url(#SVGID_2_)" fill="#D64355" points="223.528,24 876,676.472 876,680.17 219.83,24 			"/>
			<polygon clip-path="url(#SVGID_2_)" fill="#D64356" points="227.227,24 876,672.773 876,676.472 223.528,24 			"/>
			<polygon clip-path="url(#SVGID_2_)" fill="#D54356" points="230.925,24 876,669.075 876,672.773 227.227,24 			"/>
			<polygon clip-path="url(#SVGID_2_)" fill="#D54357" points="234.623,24 876,665.377 876,669.075 230.925,24 			"/>
			<polygon clip-path="url(#SVGID_2_)" fill="#D44357" points="238.321,24 876,661.678 876,665.377 234.623,24 			"/>
			<polygon clip-path="url(#SVGID_2_)" fill="#D44357" points="242.021,24 876,657.98 876,661.678 238.321,24 			"/>
			<polygon clip-path="url(#SVGID_2_)" fill="#D44358" points="245.719,24 876,654.281 876,657.98 242.021,24 			"/>
			<polygon clip-path="url(#SVGID_2_)" fill="#D34358" points="249.417,24 876,650.584 876,654.281 245.719,24 			"/>
			<polygon clip-path="url(#SVGID_2_)" fill="#D34359" points="253.115,24 876,646.885 876,650.584 249.417,24 			"/>
			<polygon clip-path="url(#SVGID_2_)" fill="#D24359" points="256.813,24 876,643.187 876,646.885 253.115,24 			"/>
			<polygon clip-path="url(#SVGID_2_)" fill="#D2435A" points="260.512,24 876,639.488 876,643.187 256.813,24 			"/>
			<polygon clip-path="url(#SVGID_2_)" fill="#D1435A" points="264.21,24 876,635.79 876,639.488 260.512,24 			"/>
			<polygon clip-path="url(#SVGID_2_)" fill="#D1435B" points="267.908,24 876,632.092 876,635.79 264.21,24 			"/>
			<polygon clip-path="url(#SVGID_2_)" fill="#D1435B" points="271.606,24 876,628.393 876,632.092 267.908,24 			"/>
			<polygon clip-path="url(#SVGID_2_)" fill="#D0435B" points="275.305,24 876,624.695 876,628.393 271.606,24 			"/>
			<polygon clip-path="url(#SVGID_2_)" fill="#D0435C" points="279.003,24 876,620.996 876,624.695 275.305,24 			"/>
			<polygon clip-path="url(#SVGID_2_)" fill="#CF435C" points="282.702,24 876,617.299 876,620.996 279.003,24 			"/>
			<polygon clip-path="url(#SVGID_2_)" fill="#CF435D" points="286.4,24 876,613.6 876,617.299 282.702,24 			"/>
			<polygon clip-path="url(#SVGID_2_)" fill="#CE435D" points="290.099,24 876,609.902 876,613.6 286.4,24 			"/>
			<polygon clip-path="url(#SVGID_2_)" fill="#CE435D" points="293.797,24 876,606.203 876,609.902 290.099,24 			"/>
			<polygon clip-path="url(#SVGID_2_)" fill="#CE435E" points="297.495,24 876,602.505 876,606.203 293.797,24 			"/>
			<polygon clip-path="url(#SVGID_2_)" fill="#CD435E" points="301.193,24 876,598.807 876,602.505 297.495,24 			"/>
			<polygon clip-path="url(#SVGID_2_)" fill="#CD435F" points="304.892,24 876,595.108 876,598.807 301.193,24 			"/>
			<polygon clip-path="url(#SVGID_2_)" fill="#CC435F" points="308.59,24 876,591.41 876,595.108 304.892,24 			"/>
			<polygon clip-path="url(#SVGID_2_)" fill="#CC4360" points="312.288,24 876,587.711 876,591.41 308.59,24 			"/>
			<polygon clip-path="url(#SVGID_2_)" fill="#CC4360" points="315.986,24 876,584.014 876,587.711 312.288,24 			"/>
			<polygon clip-path="url(#SVGID_2_)" fill="#CB4360" points="319.685,24 876,580.314 876,584.014 315.986,24 			"/>
			<polygon clip-path="url(#SVGID_2_)" fill="#CB4361" points="323.384,24 876,576.617 876,580.314 319.685,24 			"/>
			<polygon clip-path="url(#SVGID_2_)" fill="#CA4361" points="327.082,24 876,572.918 876,576.617 323.384,24 			"/>
			<polygon clip-path="url(#SVGID_2_)" fill="#CA4362" points="330.78,24 876,569.221 876,572.918 327.082,24 			"/>
			<polygon clip-path="url(#SVGID_2_)" fill="#C94362" points="334.479,24 876,565.521 876,569.221 330.78,24 			"/>
			<polygon clip-path="url(#SVGID_2_)" fill="#C94362" points="338.177,24 876,561.823 876,565.521 334.479,24 			"/>
			<polygon clip-path="url(#SVGID_2_)" fill="#C94263" points="341.875,24 876,558.125 876,561.823 338.177,24 			"/>
			<polygon clip-path="url(#SVGID_2_)" fill="#C84263" points="345.573,24 876,554.427 876,558.125 341.875,24 			"/>
			<polygon clip-path="url(#SVGID_2_)" fill="#C84264" points="349.271,24 876,550.729 876,554.427 345.573,24 			"/>
			<polygon clip-path="url(#SVGID_2_)" fill="#C74264" points="352.97,24 876,547.029 876,550.729 349.271,24 			"/>
			<polygon clip-path="url(#SVGID_2_)" fill="#C74265" points="356.668,24 876,543.332 876,547.029 352.97,24 			"/>
			<polygon clip-path="url(#SVGID_2_)" fill="#C64265" points="360.366,24 876,539.633 876,543.332 356.668,24 			"/>
			<polygon clip-path="url(#SVGID_2_)" fill="#C64265" points="364.065,24 876,535.936 876,539.633 360.366,24 			"/>
			<polygon clip-path="url(#SVGID_2_)" fill="#C64266" points="367.764,24 876,532.236 876,535.936 364.065,24 			"/>
			<polygon clip-path="url(#SVGID_2_)" fill="#C54266" points="371.462,24 876,528.538 876,532.236 367.764,24 			"/>
			<polygon clip-path="url(#SVGID_2_)" fill="#C54267" points="375.16,24 876,524.84 876,528.538 371.462,24 			"/>
			<polygon clip-path="url(#SVGID_2_)" fill="#C44267" points="378.858,24 876,521.142 876,524.84 375.16,24 			"/>
			<polygon clip-path="url(#SVGID_2_)" fill="#C44267" points="382.557,24 876,517.443 876,521.142 378.858,24 			"/>
			<polygon clip-path="url(#SVGID_2_)" fill="#C34268" points="386.255,24 876,513.745 876,517.443 382.557,24 			"/>
			<polygon clip-path="url(#SVGID_2_)" fill="#C34268" points="389.953,24 876,510.047 876,513.745 386.255,24 			"/>
			<polygon clip-path="url(#SVGID_2_)" fill="#C34269" points="393.651,24 876,506.348 876,510.047 389.953,24 			"/>
			<polygon clip-path="url(#SVGID_2_)" fill="#C24269" points="397.35,24 876,502.65 876,506.348 393.651,24 			"/>
			<polygon clip-path="url(#SVGID_2_)" fill="#C2426A" points="401.048,24 876,498.951 876,502.65 397.35,24 			"/>
			<polygon clip-path="url(#SVGID_2_)" fill="#C1426A" points="404.747,24 876,495.254 876,498.951 401.048,24 			"/>
			<polygon clip-path="url(#SVGID_2_)" fill="#C1426A" points="408.445,24 876,491.555 876,495.254 404.747,24 			"/>
			<polygon clip-path="url(#SVGID_2_)" fill="#C0426B" points="412.144,24 876,487.856 876,491.555 408.445,24 			"/>
			<polygon clip-path="url(#SVGID_2_)" fill="#C0426B" points="415.842,24 876,484.158 876,487.856 412.144,24 			"/>
			<polygon clip-path="url(#SVGID_2_)" fill="#BF426C" points="419.54,24 876,480.46 876,484.158 415.842,24 			"/>
			<polygon clip-path="url(#SVGID_2_)" fill="#BF426C" points="423.238,24 876,476.762 876,480.46 419.54,24 			"/>
			<polygon clip-path="url(#SVGID_2_)" fill="#BF426C" points="426.937,24 876,473.063 876,476.762 423.238,24 			"/>
			<polygon clip-path="url(#SVGID_2_)" fill="#BE426D" points="430.635,24 876,469.365 876,473.063 426.937,24 			"/>
			<polygon clip-path="url(#SVGID_2_)" fill="#BE426D" points="434.333,24 876,465.666 876,469.365 430.635,24 			"/>
			<polygon clip-path="url(#SVGID_2_)" fill="#BD426E" points="438.031,24 876,461.969 876,465.666 434.333,24 			"/>
			<polygon clip-path="url(#SVGID_2_)" fill="#BD426E" points="441.729,24 876,458.27 876,461.969 438.031,24 			"/>
			<polygon clip-path="url(#SVGID_2_)" fill="#BC426F" points="445.429,24 876,454.572 876,458.27 441.729,24 			"/>
			<polygon clip-path="url(#SVGID_2_)" fill="#BC426F" points="449.127,24 876,450.873 876,454.572 445.429,24 			"/>
			<polygon clip-path="url(#SVGID_2_)" fill="#BC426F" points="452.825,24 876,447.175 876,450.873 449.127,24 			"/>
			<polygon clip-path="url(#SVGID_2_)" fill="#BB4270" points="456.523,24 876,443.477 876,447.175 452.825,24 			"/>
			<polygon clip-path="url(#SVGID_2_)" fill="#BB4270" points="460.222,24 876,439.778 876,443.477 456.523,24 			"/>
			<polygon clip-path="url(#SVGID_2_)" fill="#BA4171" points="463.92,24 876,436.08 876,439.778 460.222,24 			"/>
			<polygon clip-path="url(#SVGID_2_)" fill="#BA4171" points="467.618,24 876,432.382 876,436.08 463.92,24 			"/>
			<polygon clip-path="url(#SVGID_2_)" fill="#B94171" points="471.316,24 876,428.684 876,432.382 467.618,24 			"/>
			<polygon clip-path="url(#SVGID_2_)" fill="#B94172" points="475.015,24 876,424.985 876,428.684 471.316,24 			"/>
			<polygon clip-path="url(#SVGID_2_)" fill="#B94172" points="478.713,24 876,421.287 876,424.985 475.015,24 			"/>
			<polygon clip-path="url(#SVGID_2_)" fill="#B84173" points="482.412,24 876,417.588 876,421.287 478.713,24 			"/>
			<polygon clip-path="url(#SVGID_2_)" fill="#B84173" points="486.11,24 876,413.89 876,417.588 482.412,24 			"/>
			<polygon clip-path="url(#SVGID_2_)" fill="#B74173" points="489.809,24 876,410.191 876,413.89 486.11,24 			"/>
			<polygon clip-path="url(#SVGID_2_)" fill="#B74174" points="493.507,24 876,406.493 876,410.191 489.809,24 			"/>
			<polygon clip-path="url(#SVGID_2_)" fill="#B64174" points="497.205,24 876,402.795 876,406.493 493.507,24 			"/>
			<polygon clip-path="url(#SVGID_2_)" fill="#B64175" points="500.903,24 876,399.097 876,402.795 497.205,24 			"/>
			<polygon clip-path="url(#SVGID_2_)" fill="#B64175" points="504.602,24 876,395.398 876,399.097 500.903,24 			"/>
			<polygon clip-path="url(#SVGID_2_)" fill="#B54175" points="508.3,24 876,391.7 876,395.398 504.602,24 			"/>
			<polygon clip-path="url(#SVGID_2_)" fill="#B54176" points="511.998,24 876,388.002 876,391.7 508.3,24 			"/>
			<polygon clip-path="url(#SVGID_2_)" fill="#B44176" points="515.696,24 876,384.303 876,388.002 511.998,24 			"/>
			<polygon clip-path="url(#SVGID_2_)" fill="#B44177" points="519.395,24 876,380.605 876,384.303 515.696,24 			"/>
			<polygon clip-path="url(#SVGID_2_)" fill="#B34177" points="523.094,24 876,376.906 876,380.605 519.395,24 			"/>
			<polygon clip-path="url(#SVGID_2_)" fill="#B34178" points="526.792,24 876,373.208 876,376.906 523.094,24 			"/>
			<polygon clip-path="url(#SVGID_2_)" fill="#B34178" points="530.49,24 876,369.51 876,373.208 526.792,24 			"/>
			<polygon clip-path="url(#SVGID_2_)" fill="#B24178" points="534.188,24 876,365.812 876,369.51 530.49,24 			"/>
			<polygon clip-path="url(#SVGID_2_)" fill="#B24179" points="537.887,24 876,362.113 876,365.812 534.188,24 			"/>
			<polygon clip-path="url(#SVGID_2_)" fill="#B14179" points="541.585,24 876,358.415 876,362.113 537.887,24 			"/>
			<polygon clip-path="url(#SVGID_2_)" fill="#B1417A" points="545.283,24 876,354.717 876,358.415 541.585,24 			"/>
			<polygon clip-path="url(#SVGID_2_)" fill="#B0407A" points="548.981,24 876,351.019 876,354.717 545.283,24 			"/>
			<polygon clip-path="url(#SVGID_2_)" fill="#B0407A" points="552.68,24 876,347.32 876,351.019 548.981,24 			"/>
			<polygon clip-path="url(#SVGID_2_)" fill="#AF407B" points="556.378,24 876,343.622 876,347.32 552.68,24 			"/>
			<polygon clip-path="url(#SVGID_2_)" fill="#AF407B" points="560.076,24 876,339.924 876,343.622 556.378,24 			"/>
			<polygon clip-path="url(#SVGID_2_)" fill="#AF407B" points="563.775,24 876,336.225 876,339.924 560.076,24 			"/>
			<polygon clip-path="url(#SVGID_2_)" fill="#AE407C" points="567.474,24 876,332.527 876,336.225 563.775,24 			"/>
			<polygon clip-path="url(#SVGID_2_)" fill="#AE407C" points="571.172,24 876,328.828 876,332.527 567.474,24 			"/>
			<polygon clip-path="url(#SVGID_2_)" fill="#AD407D" points="574.87,24 876,325.13 876,328.828 571.172,24 			"/>
			<polygon clip-path="url(#SVGID_2_)" fill="#AD407D" points="578.568,24 876,321.432 876,325.13 574.87,24 			"/>
			<polygon clip-path="url(#SVGID_2_)" fill="#AC407D" points="582.267,24 876,317.733 876,321.432 578.568,24 			"/>
			<polygon clip-path="url(#SVGID_2_)" fill="#AC407E" points="585.965,24 876,314.035 876,317.733 582.267,24 			"/>
			<polygon clip-path="url(#SVGID_2_)" fill="#AC407E" points="589.663,24 876,310.337 876,314.035 585.965,24 			"/>
			<polygon clip-path="url(#SVGID_2_)" fill="#AB407F" points="593.361,24 876,306.639 876,310.337 589.663,24 			"/>
			<polygon clip-path="url(#SVGID_2_)" fill="#AB407F" points="597.06,24 876,302.94 876,306.639 593.361,24 			"/>
			<polygon clip-path="url(#SVGID_2_)" fill="#AA407F" points="600.758,24 876,299.242 876,302.94 597.06,24 			"/>
			<polygon clip-path="url(#SVGID_2_)" fill="#AA4080" points="604.457,24 876,295.543 876,299.242 600.758,24 			"/>
			<polygon clip-path="url(#SVGID_2_)" fill="#A94080" points="608.155,24 876,291.845 876,295.543 604.457,24 			"/>
			<polygon clip-path="url(#SVGID_2_)" fill="#A94081" points="611.854,24 876,288.146 876,291.845 608.155,24 			"/>
			<polygon clip-path="url(#SVGID_2_)" fill="#A84081" points="615.552,24 876,284.448 876,288.146 611.854,24 			"/>
			<polygon clip-path="url(#SVGID_2_)" fill="#A84081" points="619.25,24 876,280.75 876,284.448 615.552,24 			"/>
			<polygon clip-path="url(#SVGID_2_)" fill="#A84082" points="622.948,24 876,277.052 876,280.75 619.25,24 			"/>
			<polygon clip-path="url(#SVGID_2_)" fill="#A74082" points="626.646,24 876,273.354 876,277.052 622.948,24 			"/>
			<polygon clip-path="url(#SVGID_2_)" fill="#A74083" points="630.345,24 876,269.655 876,273.354 626.646,24 			"/>
			<polygon clip-path="url(#SVGID_2_)" fill="#A64083" points="634.043,24 876,265.957 876,269.655 630.345,24 			"/>
			<polygon clip-path="url(#SVGID_2_)" fill="#A64083" points="637.741,24 876,262.258 876,265.957 634.043,24 			"/>
			<polygon clip-path="url(#SVGID_2_)" fill="#A54084" points="641.439,24 876,258.561 876,262.258 637.741,24 			"/>
			<polygon clip-path="url(#SVGID_2_)" fill="#A54084" points="645.139,24 876,254.861 876,258.561 641.439,24 			"/>
			<polygon clip-path="url(#SVGID_2_)" fill="#A44084" points="648.837,24 876,251.164 876,254.861 645.139,24 			"/>
			<polygon clip-path="url(#SVGID_2_)" fill="#A44085" points="652.535,24 876,247.465 876,251.164 648.837,24 			"/>
			<polygon clip-path="url(#SVGID_2_)" fill="#A43F85" points="656.233,24 876,243.767 876,247.465 652.535,24 			"/>
			<polygon clip-path="url(#SVGID_2_)" fill="#A33F86" points="659.932,24 876,240.068 876,243.767 656.233,24 			"/>
			<polygon clip-path="url(#SVGID_2_)" fill="#A33F86" points="663.63,24 876,236.37 876,240.068 659.932,24 			"/>
			<polygon clip-path="url(#SVGID_2_)" fill="#A23F86" points="667.328,24 876,232.672 876,236.37 663.63,24 			"/>
			<polygon clip-path="url(#SVGID_2_)" fill="#A23F87" points="671.026,24 876,228.974 876,232.672 667.328,24 			"/>
			<polygon clip-path="url(#SVGID_2_)" fill="#A13F87" points="674.725,24 876,225.275 876,228.974 671.026,24 			"/>
			<polygon clip-path="url(#SVGID_2_)" fill="#A13F88" points="678.423,24 876,221.577 876,225.275 674.725,24 			"/>
			<polygon clip-path="url(#SVGID_2_)" fill="#A03F88" points="682.121,24 876,217.879 876,221.577 678.423,24 			"/>
			<polygon clip-path="url(#SVGID_2_)" fill="#A03F88" points="685.82,24 876,214.18 876,217.879 682.121,24 			"/>
			<polygon clip-path="url(#SVGID_2_)" fill="#A03F89" points="689.519,24 876,210.482 876,214.18 685.82,24 			"/>
			<polygon clip-path="url(#SVGID_2_)" fill="#9F3F89" points="693.217,24 876,206.783 876,210.482 689.519,24 			"/>
			<polygon clip-path="url(#SVGID_2_)" fill="#9F3F89" points="696.915,24 876,203.085 876,206.783 693.217,24 			"/>
			<polygon clip-path="url(#SVGID_2_)" fill="#9E3F8A" points="700.613,24 876,199.387 876,203.085 696.915,24 			"/>
			<polygon clip-path="url(#SVGID_2_)" fill="#9E3F8A" points="704.312,24 876,195.688 876,199.387 700.613,24 			"/>
			<polygon clip-path="url(#SVGID_2_)" fill="#9D3F8B" points="708.01,24 876,191.99 876,195.688 704.312,24 			"/>
			<polygon clip-path="url(#SVGID_2_)" fill="#9D3F8B" points="711.708,24 876,188.292 876,191.99 708.01,24 			"/>
			<polygon clip-path="url(#SVGID_2_)" fill="#9C3F8B" points="715.406,24 876,184.594 876,188.292 711.708,24 			"/>
			<polygon clip-path="url(#SVGID_2_)" fill="#9C3F8C" points="719.104,24 876,180.895 876,184.594 715.406,24 			"/>
			<polygon clip-path="url(#SVGID_2_)" fill="#9B3F8C" points="722.804,24 876,177.197 876,180.895 719.104,24 			"/>
			<polygon clip-path="url(#SVGID_2_)" fill="#9B3F8D" points="726.502,24 876,173.498 876,177.197 722.804,24 			"/>
			<polygon clip-path="url(#SVGID_2_)" fill="#9B3F8D" points="730.2,24 876,169.8 876,173.498 726.502,24 			"/>
			<polygon clip-path="url(#SVGID_2_)" fill="#9A3F8E" points="733.898,24 876,166.102 876,169.8 730.2,24 			"/>
			<polygon clip-path="url(#SVGID_2_)" fill="#9A3F8E" points="737.597,24 876,162.403 876,166.102 733.898,24 			"/>
			<polygon clip-path="url(#SVGID_2_)" fill="#993F8E" points="741.295,24 876,158.705 876,162.403 737.597,24 			"/>
			<polygon clip-path="url(#SVGID_2_)" fill="#993F8F" points="744.993,24 876,155.007 876,158.705 741.295,24 			"/>
			<polygon clip-path="url(#SVGID_2_)" fill="#983F8F" points="748.691,24 876,151.309 876,155.007 744.993,24 			"/>
			<polygon clip-path="url(#SVGID_2_)" fill="#983F90" points="752.39,24 876,147.61 876,151.309 748.691,24 			"/>
			<polygon clip-path="url(#SVGID_2_)" fill="#973F90" points="756.088,24 876,143.912 876,147.61 752.39,24 			"/>
			<polygon clip-path="url(#SVGID_2_)" fill="#973F90" points="759.786,24 876,140.213 876,143.912 756.088,24 			"/>
			<polygon clip-path="url(#SVGID_2_)" fill="#963F91" points="763.485,24 876,136.515 876,140.213 759.786,24 			"/>
			<polygon clip-path="url(#SVGID_2_)" fill="#963F91" points="767.184,24 876,132.816 876,136.515 763.485,24 			"/>
			<polygon clip-path="url(#SVGID_2_)" fill="#953F92" points="770.882,24 876,129.119 876,132.816 767.184,24 			"/>
			<polygon clip-path="url(#SVGID_2_)" fill="#953F92" points="774.58,24 876,125.42 876,129.119 770.882,24 			"/>
			<polygon clip-path="url(#SVGID_2_)" fill="#943F92" points="778.278,24 876,121.722 876,125.42 774.58,24 			"/>
			<polygon clip-path="url(#SVGID_2_)" fill="#943F93" points="781.977,24 876,118.023 876,121.722 778.278,24 			"/>
			<polygon clip-path="url(#SVGID_2_)" fill="#933F93" points="785.675,24 876,114.325 876,118.023 781.977,24 			"/>
			<polygon clip-path="url(#SVGID_2_)" fill="#933F94" points="789.373,24 876,110.627 876,114.325 785.675,24 			"/>
			<polygon clip-path="url(#SVGID_2_)" fill="#933F94" points="793.071,24 876,106.929 876,110.627 789.373,24 			"/>
			<polygon clip-path="url(#SVGID_2_)" fill="#923F95" points="796.77,24 876,103.23 876,106.929 793.071,24 			"/>
			<polygon clip-path="url(#SVGID_2_)" fill="#923F95" points="800.468,24 876,99.532 876,103.23 796.77,24 			"/>
			<polygon clip-path="url(#SVGID_2_)" fill="#913F96" points="804.167,24 876,95.833 876,99.532 800.468,24 			"/>
			<polygon clip-path="url(#SVGID_2_)" fill="#903F97" points="807.865,24 876,92.135 876,95.833 804.167,24 			"/>
			<polygon clip-path="url(#SVGID_2_)" fill="#903F98" points="811.563,24 876,88.437 876,92.135 807.865,24 			"/>
			<polygon clip-path="url(#SVGID_2_)" fill="#903F98" points="876,88.437 811.563,24 876,24 			"/>
		</g>
	</g>
	<g>
		<g>
			<path fill="#FFFFFF" d="M554.462,360.461c-8.224,0-14.924-6.7-14.924-14.923v-29.846c0-8.223,6.7-14.923,14.924-14.923h29.846
				c8.223,0,14.924,6.701,14.924,14.923v29.846c0,8.223-6.701,14.923-14.924,14.923H554.462z"/>
		</g>
		<g>
			<path fill="#FFFFFF" d="M450,393.113c-10.834,0-20.833,3.179-29.443,8.401c2.686-0.835,5.477-1.387,8.417-1.387
				c15.938,0,28.847,12.908,28.847,28.861c0,15.908-12.909,28.846-28.847,28.846c-15.938,0-28.846-12.923-28.846-28.846
				c0-2.97,0.582-5.76,1.403-8.432c-5.253,8.61-8.417,18.609-8.417,29.443c0,31.443,25.444,56.901,56.901,56.901
				c31.413,0,56.902-25.443,56.902-56.901S481.412,393.113,450,393.113z"/>
		</g>
		<g>
			<g>
				<path fill="#FFFFFF" d="M450,360.461c49.44,0,89.538,40.083,89.538,89.539S499.426,539.538,450,539.538
					c-49.44,0-89.539-40.083-89.539-89.538S400.56,360.461,450,360.461 M450,330.616c-65.826,0-119.384,53.559-119.384,119.384
					S384.174,569.385,450,569.385c65.826,0,119.385-53.56,119.385-119.385S515.826,330.616,450,330.616L450,330.616z"/>
			</g>
		</g>
		<g>
			<path fill="#FFFFFF" d="M571.25,256h-242.5c-40.188,0-72.75,32.563-72.75,72.75v242.5c0,40.188,32.563,72.75,72.75,72.75h242.5
				c40.188,0,72.75-32.563,72.75-72.75v-242.5C644,288.563,611.438,256,571.25,256z M614.154,390.307h-97.553
				c14.222,15.863,22.937,36.726,22.937,59.693c0,49.455-40.112,89.538-89.538,89.538c-49.44,0-89.539-40.083-89.539-89.538
				c0-22.967,8.715-43.844,22.937-59.693h-97.552V328.75c0-23.653,19.25-42.904,42.904-42.904h242.5
				c23.668,0,42.904,19.25,42.904,42.904V390.307z"/>
		</g>
	</g>
</g>
</svg>
