<?xml version="1.0" encoding="utf-8"?>
<!-- Generator: Adobe Illustrator 16.0.0, SVG Export Plug-In . SVG Version: 6.00 Build 0)  -->
<!DOCTYPE svg PUBLIC "-//W3C//DTD SVG 1.1//EN" "http://www.w3.org/Graphics/SVG/1.1/DTD/svg11.dtd">
<svg xmlns="http://www.w3.org/2000/svg" viewBox="570 -102 43.249 58">
    <g transform="translate(562.624 -102)">
        <path d="M22.625,23h-4a1,1,0,0,0,0,2h4a1,1,0,0,0,0-2Z"></path>
        <path d="M18.625,29h2a1,1,0,0,0,0-2h-2a1,1,0,0,0,0,2Z"></path>
        <path d="M22.625,39h-4a1,1,0,0,0,0,2h4a1,1,0,0,0,0-2Z"></path>
        <path d="M22.625,31h-4a1,1,0,0,0,0,2h4a1,1,0,0,0,0-2Z"></path>
        <path d="M18.625,37h2a1,1,0,0,0,0-2h-2a1,1,0,0,0,0,2Z"></path>
        <path d="M47.625,15H44.356l.069-.47a4.245,4.245,0,0,0-3.8-4.483V8a3,3,0,0,0-3-3h-2V3a3,3,0,0,0-3-3h-12a3,3,0,0,0-3,3V5h-2a3,3,0,0,0-3,3v2H10.393a3.017,3.017,0,0,0-2.51,4.69l3.773,5.659L14,42.969A4.947,4.947,0,0,0,14.934,45H12.625a3,3,0,0,0-3,3V58h34V48a3,3,0,0,0-3-3H39.007a5.773,5.773,0,0,0,1.474-3.526L40.7,40h6.928a3,3,0,0,0,3-3V18A3,3,0,0,0,47.625,15Zm-28-12a1,1,0,0,1,1-1h12a1,1,0,0,1,1,1V5h-14Zm-5,5a1,1,0,0,1,1-1h22a1,1,0,0,1,1,1v2h-24Zm26,39a1,1,0,0,1,1,1v8h-30V48a1,1,0,0,1,1-1h28Zm-1.674-8.852L38.669,40h.011l-.186,1.271A3.957,3.957,0,0,1,34.547,45H18.917a3.007,3.007,0,0,1-2.942-2.33L13.6,19.651,9.547,13.58A1.016,1.016,0,0,1,10.392,12H40.145a2.3,2.3,0,0,1,2.291,2.329ZM48.625,37a1,1,0,0,1-1,1H41l3.2-21h3.426a1,1,0,0,1,1,1Z"></path>
        <path d="M17.125,48a3.5,3.5,0,1,0,3.5,3.5A3.5,3.5,0,0,0,17.125,48Zm0,5a1.5,1.5,0,1,1,1.5-1.5A1.5,1.5,0,0,1,17.125,53Z"></path>
        <path d="M32.625,51.5a3.5,3.5,0,1,0,3.5-3.5A3.5,3.5,0,0,0,32.625,51.5Zm3.5-1.5a1.5,1.5,0,1,1-1.5,1.5A1.5,1.5,0,0,1,36.125,50Z"></path>
        <path d="M24.625,48a1,1,0,0,0-1,1v5a1,1,0,0,0,2,0V49A1,1,0,0,0,24.625,48Z"></path>
        <path d="M28.625,48a1,1,0,0,0-1,1v5a1,1,0,0,0,2,0V49A1,1,0,0,0,28.625,48Z"></path>
    </g>
</svg>