<?xml version="1.0" encoding="utf-8"?>
<!-- Generator: Adobe Illustrator 16.0.0, SVG Export Plug-In . SVG Version: 6.00 Build 0)  -->
<!DOCTYPE svg PUBLIC "-//W3C//DTD SVG 1.1//EN" "http://www.w3.org/Graphics/SVG/1.1/DTD/svg11.dtd">
<svg xmlns="http://www.w3.org/2000/svg" viewBox="96 307 22.553 40">
<g transform="translate(-15.66 307)">
<g transform="translate(111.66)">
    <path class="a" d="M131.022,0h-16.17a3.2,3.2,0,0,0-3.191,3.191V7.447a.638.638,0,0,0,.638.638h20.638v23.83h-20V10a.638.638,0,0,0-1.277,0V36.809A3.2,3.2,0,0,0,114.852,40h16.17a3.2,3.2,0,0,0,3.191-3.191V3.191A3.2,3.2,0,0,0,131.022,0Zm1.915,36.809a1.917,1.917,0,0,1-1.915,1.915h-16.17a1.917,1.917,0,0,1-1.915-1.915V33.191h20Zm0-30h-20V3.191a1.917,1.917,0,0,1,1.915-1.915h16.17a1.917,1.917,0,0,1,1.915,1.915Z" transform="translate(-111.66)"></path>
</g>
<g transform="translate(119.745 35.319)">
    <path d="M220.894,452.085h-5.106a.638.638,0,1,0,0,1.277h5.106a.638.638,0,1,0,0-1.277Z" transform="translate(-215.149 -452.085)"></path>
</g>
<g transform="translate(122.298 3.404)">
    <circle cx="0.638" cy="0.638" r="0.638"></circle>
</g>
</g>
</svg>