<?xml version="1.0" encoding="utf-8"?>
<!-- Generator: Adobe Illustrator 16.0.0, SVG Export Plug-In . SVG Version: 6.00 Build 0)  -->
<!DOCTYPE svg PUBLIC "-//W3C//DTD SVG 1.1//EN" "http://www.w3.org/Graphics/SVG/1.1/DTD/svg11.dtd">
<svg xmlns="http://www.w3.org/2000/svg" viewBox="4.933 243.836 546.067 294.164"><defs><style>.a{fill-rule:evenodd;}.b{font-size:202px;font-family:Roboto-Bold, Roboto;font-weight:700;}</style></defs><g transform="translate(-8.413 -1.179)"><path class="a" d="M147.3,565.031c0-17.181-11.229-23.61-28.073-23.61H88.352V612.67h19.37V589.594h10.106C134.952,589.594,147.3,583.165,147.3,565.031Zm-19.932.309c0,5.39-2.526,8.141-8.983,8.141H107.722V557.535H118.67c6.457,0,8.7,3.144,8.7,7.8" transform="translate(-20.156 -292.975)"></path><path class="a" d="M205.878,612.67l-26.107-71.249H159.558L133.451,612.67h21.616l3.649-12.522h21.616l3.93,12.522ZM175.56,584.484H163.77l1.123-4.687c2.527-9.068,3.93-13.026,4.772-17.8.842,4.773,1.966,8.618,4.491,17.8l1.4,4.687" transform="translate(-7.987 -292.975)"></path><path d="M257.789,541.421H235.051l-5.615,10.809c-3.93,7.411-7.018,14.232-8.141,18.387a179.458,179.458,0,0,0-8.141-18.387l-5.615-10.809H184.52l26.669,45V612.67h19.932V586.113l26.669-44.692" transform="translate(5.792 -292.975)"></path><path class="a" d="M310.553,589.678c0-8.028-3.93-13.026-10.387-15.776,4.773-2.752,8.7-6.2,8.7-13.925,0-11.93-7.3-18.556-25.265-18.556h-34.53V612.67H283.6C301.57,612.67,310.553,604.247,310.553,589.678Zm-21.335-27.061c0,3.34-1.684,5.586-6.175,5.586H268.164V557h14.878C287.815,557,289.218,559.443,289.218,562.617ZM290.9,590.1c0,4.042-2.246,7.018-7.018,7.018h-15.72v-13.84h15.72c4.772,0,7.018,2.639,7.018,6.821" transform="translate(23.209 -292.975)"></path><path class="a" d="M373.675,612.67l-26.107-71.249H327.356L301.249,612.67h21.615l3.649-12.522h21.616l3.93,12.522Zm-30.318-28.186h-11.79l1.122-4.687c2.808-9.068,3.93-13.026,4.772-17.8.843,4.773,1.966,8.618,4.493,17.8l1.4,4.687" transform="translate(37.286 -292.975)"></path><path d="M424.2,595.609l-16.844-8.871c-3.93,6.738-6.738,10.106-12.914,10.106-8.7,0-12.071-8.674-12.071-19.539,0-11.313,3.649-19.539,11.79-19.539,6.738,0,9.264,4.155,11.791,10.779l17.965-7.017c-5.053-13.447-11.79-20.971-29.476-20.971-19.37,0-32.845,13.84-32.845,36.747,0,21.055,11.23,36.719,32.564,36.719,17.125,0,25.265-9.068,30.039-18.416" transform="translate(53.57 -293.208)"></path><path d="M485.334,612.67l-24.143-46.1,21.616-25.154H458.665l-5.614,7.243c-4.773,5.783-10.948,14.036-14.036,18.725.281-5.193.281-11.595.281-17.6v-8.365H419.082V612.67h20.213V591.194l7.58-8.843,14.878,30.319h23.582" transform="translate(69.079 -292.975)"></path><path d="M66.306,538.719A21.052,21.052,0,1,0,87.179,559.79,21.138,21.138,0,0,0,66.306,538.719Zm0,4.682A16.369,16.369,0,1,1,49.839,559.79,16.35,16.35,0,0,1,66.306,543.4Z" transform="translate(-31.81 -293.704)"></path></g><text class="b" transform="translate(46 483)"><tspan x="0" y="0">PLUS</tspan></text></svg>