<svg width="182" height="48" viewBox="0 0 182 48" xmlns="http://www.w3.org/2000/svg"><title>sprite-rating</title><g fill="none" fill-rule="evenodd"><path fill="#FFBA00" fill-rule="nonzero" d="M0 0h100v8H0z"/><path d="M20 0v8m20-8v8m20-8v8m20-8v8" stroke="#FFF" stroke-width="2"/><path d="M65.3 23l-2.7 2.7.7 3.8v.2c0 .2-.1.4-.3.4-.1 0-.2 0-.3-.1l-3.4-1.8-3.4 1.8h-.4c-.2 0-.3-.2-.3-.4v-.2l.7-3.8-2.8-2.6c-.1-.1-.2-.2-.2-.4s.2-.3.4-.3l3.8-.6 1.7-3.4c.1-.1.2-.3.4-.3s.3.2.4.3l1.7 3.4 3.8.6c.2 0 .4.1.4.3 0 .2-.1.3-.2.4zm-52.4 0l-2.7 2.7.7 3.8v.2c0 .2-.1.4-.3.4-.1 0-.2 0-.3-.1l-3.4-1.8L3.5 30h-.4c-.2 0-.3-.2-.3-.4v-.2l.7-3.8L.7 23c-.1-.1-.2-.2-.2-.4s.2-.3.4-.3l3.8-.6 1.7-3.4c.1-.1.2-.3.4-.3s.3.2.4.3l1.7 3.4 3.8.6c.2 0 .4.1.4.3 0 .2-.1.3-.2.4zM26 23l-2.7 2.7.7 3.8v.2c0 .2-.1.4-.3.4-.1 0-.2 0-.3-.1L20 28.2 16.6 30h-.4c-.2 0-.3-.2-.3-.4v-.2l.7-3.8-2.8-2.6c-.1-.1-.2-.2-.2-.4s.2-.3.4-.3l3.8-.6 1.7-3.4c.1-.1.2-.3.4-.3s.3.2.4.3l1.7 3.4 3.8.6c.2 0 .4.1.4.3 0 .2-.1.3-.2.4zm13.1 0l-2.7 2.7.7 3.8v.2c0 .2-.1.4-.3.4-.1 0-.2 0-.3-.1L33 28.1l-3.4 1.8c-.1.1-.2.1-.3.1-.2 0-.3-.2-.3-.4v-.2l.7-3.8-2.8-2.6c-.1-.1-.2-.2-.2-.4s.2-.3.4-.3l3.8-.6 1.7-3.4c.1-.1.2-.3.4-.3s.3.2.4.3l1.7 3.4 3.8.6c.2 0 .4.1.4.3 0 .2-.1.3-.2.4zm13.1 0l-2.7 2.7.7 3.8v.2c0 .2-.1.4-.3.4-.1 0-.2 0-.3-.1l-3.4-1.8-3.4 1.8h-.4c-.2 0-.3-.2-.3-.4v-.2l.7-3.8L40 23c-.1-.1-.2-.2-.2-.4s.2-.3.4-.3l3.8-.6 1.7-3.4c.1-.1.2-.3.4-.3s.3.2.4.3l1.7 3.4 3.8.6c.2 0 .4.1.4.3 0 .2-.1.3-.2.4zM89.7 38.7l-3.8 3.6.9 5v.2c0 .3-.1.5-.4.5-.1 0-.3 0-.4-.1l-4.7-2.4-4.7 2.4c-.1.1-.3.1-.4.1-.3 0-.4-.2-.4-.5v-.2l.9-5-3.8-3.6c-.1-.1-.3-.3-.3-.5 0-.3.3-.4.6-.5l5.3-.7 2.4-4.6c.1-.2.3-.4.5-.4s.4.2.5.4l2.4 4.6 5.3.7c.3 0 .6.2.6.5-.2.2-.3.4-.5.5zm-72.6 0l-3.8 3.6.9 5v.2c0 .3-.1.5-.4.5-.1 0-.3 0-.4-.1l-4.7-2.4L4 47.9c-.1.1-.3.1-.4.1-.3 0-.4-.2-.4-.5v-.2l.9-5-3.8-3.6c-.2-.1-.3-.3-.3-.5 0-.3.3-.4.6-.5l5.2-.7 2.4-4.6c.1-.2.3-.4.5-.4s.4.2.5.4l2.4 4.6 5.3.7c.3 0 .6.2.6.5-.1.2-.2.4-.4.5zm18.2 0l-3.8 3.6.9 5v.2c0 .3-.1.5-.4.5-.1 0-.3 0-.4-.1l-4.7-2.4-4.7 2.4c-.2.1-.3.1-.5.1-.3 0-.4-.2-.4-.5v-.2l.9-5-3.8-3.6c-.1-.1-.3-.3-.3-.5 0-.3.3-.4.6-.5L24 37l2.4-4.6c.1-.2.3-.4.5-.4s.4.2.5.4l2.4 4.6 5.3.7c.3 0 .6.2.6.5-.1.2-.3.4-.4.5zm18.1 0l-3.8 3.6.9 5v.2c0 .3-.1.5-.4.5-.1 0-.3 0-.4-.1L45 45.5l-4.7 2.4c-.1.1-.3.1-.4.1-.3 0-.4-.2-.4-.5v-.2l.9-5-3.8-3.6c-.1-.1-.3-.3-.3-.5 0-.3.3-.4.6-.5l5.3-.7 2.4-4.6c.1-.2.3-.4.5-.4s.4.2.5.4L48 37l5.3.7c.3 0 .6.2.6.5-.2.2-.3.4-.5.5zm18.2 0l-3.8 3.6.9 5v.2c0 .3-.1.5-.4.5-.1 0-.3 0-.4-.1l-4.7-2.4-4.7 2.4c-.2.1-.3.1-.5.1-.3 0-.4-.2-.4-.5v-.2l.9-5-3.8-3.6c-.1-.1-.3-.3-.3-.5 0-.3.3-.4.6-.5l5.3-.7 2.4-4.6c.1-.2.3-.4.5-.4s.4.2.5.4L66 37l5.3.7c.3 0 .6.2.6.5 0 .2-.2.4-.3.5z" fill="#E8E9E9" fill-rule="nonzero"/><path d="M131.3 23l-2.7 2.7.7 3.8v.2c0 .2-.1.4-.3.4-.1 0-.2 0-.3-.1l-3.4-1.8-3.4 1.8c-.1.1-.2.1-.3.1-.2 0-.3-.2-.3-.4v-.2l.7-3.8-2.8-2.7c-.1-.1-.2-.2-.2-.4s.2-.3.4-.3l3.8-.6 1.7-3.4c.1-.1.2-.3.4-.3s.3.2.4.3l1.7 3.4 3.8.6c.2 0 .4.1.4.3-.1.2-.2.3-.3.4zm-52.4 0l-2.7 2.7.7 3.8v.2c0 .2-.1.4-.3.4-.1 0-.2 0-.3-.1l-3.4-1.8-3.4 1.8h-.4c-.2 0-.3-.2-.3-.4v-.2l.7-3.8-2.8-2.6c-.1-.1-.2-.2-.2-.4s.2-.3.4-.3l3.8-.6 1.7-3.4c.1-.1.2-.3.4-.3s.3.2.4.3l1.7 3.4 3.8.6c.2 0 .4.1.4.3 0 .2-.1.3-.2.4zM92 23l-2.7 2.7.7 3.8v.2c0 .2-.1.4-.3.4-.1 0-.2 0-.3-.1L86 28.2 82.6 30h-.4c-.2 0-.3-.2-.3-.4v-.2l.7-3.8-2.8-2.6c-.1-.1-.2-.2-.2-.4s.2-.3.4-.3l3.8-.6 1.7-3.4c.1-.1.2-.3.4-.3s.3.2.4.3l1.7 3.4 3.8.6c.2 0 .4.1.4.3 0 .2-.1.3-.2.4zm13.1 0l-2.7 2.7.7 3.8v.2c0 .2-.1.4-.3.4-.1 0-.2 0-.3-.1L99 28.1l-3.4 1.8c-.1.1-.2.1-.3.1-.2 0-.3-.2-.3-.4v-.2l.7-3.8-2.8-2.6c-.1-.1-.2-.2-.2-.4s.2-.3.4-.3l3.8-.6 1.7-3.4c.1-.1.2-.3.4-.3s.3.2.4.3l1.7 3.4 3.8.6c.2 0 .4.1.4.3 0 .2-.1.3-.2.4zm13.1 0l-2.7 2.7.7 3.8v.2c0 .2-.1.4-.3.4-.1 0-.2 0-.3-.1l-3.4-1.8-3.4 1.8c-.1.1-.2.1-.3.1-.2 0-.3-.2-.3-.4v-.2l.7-3.8L106 23c-.1-.1-.2-.2-.2-.4s.2-.3.4-.3l3.8-.6 1.7-3.4c.1-.1.2-.3.4-.3s.3.2.4.3l1.7 3.4 3.8.6c.2 0 .4.1.4.3 0 .2-.1.3-.2.4zM180.7 38.7l-3.8 3.6.9 5v.2c0 .3-.1.5-.4.5-.1 0-.3 0-.4-.1l-4.7-2.4-4.7 2.4c-.1.1-.3.1-.4.1-.3 0-.4-.2-.4-.5v-.2l.9-5-3.8-3.6c-.1-.1-.3-.3-.3-.5 0-.3.3-.4.6-.5l5.3-.7 2.4-4.6c.1-.2.3-.4.5-.4s.4.2.5.4l2.4 4.6 5.3.7c.3 0 .6.2.6.5-.2.2-.3.4-.5.5zm-72.6 0l-3.8 3.6.9 5v.2c0 .3-.1.5-.4.5-.1 0-.3 0-.4-.1l-4.7-2.4-4.7 2.4c-.1.1-.3.1-.4.1-.3 0-.4-.2-.4-.5v-.2l.9-5-3.8-3.6c-.1-.1-.3-.3-.3-.5 0-.3.3-.4.6-.5l5.3-.7 2.4-4.6c.1-.2.3-.4.5-.4s.4.2.5.4l2.4 4.6 5.3.7c.3 0 .6.2.6.5-.2.2-.3.4-.5.5zm18.2 0l-3.8 3.6.9 5v.2c0 .3-.1.5-.4.5-.1 0-.3 0-.4-.1l-4.7-2.4-4.7 2.4c-.1.1-.3.1-.4.1-.3 0-.4-.2-.4-.5v-.2l.9-5-3.8-3.6c-.1-.1-.3-.3-.3-.5 0-.3.3-.4.6-.5l5.2-.7 2.4-4.6c.1-.2.3-.4.5-.4s.4.2.5.4l2.4 4.6 5.3.7c.3 0 .6.2.6.5-.1.2-.3.4-.4.5zm18.1 0l-3.8 3.6.9 5v.2c0 .3-.1.5-.4.5-.1 0-.3 0-.4-.1l-4.7-2.4-4.7 2.4c-.1.1-.3.1-.4.1-.3 0-.4-.2-.4-.5v-.2l.9-5-3.8-3.6c-.1-.1-.3-.3-.3-.5 0-.3.3-.4.6-.5l5.3-.7 2.4-4.6c.1-.2.3-.4.5-.4s.4.2.5.4L139 37l5.3.7c.3 0 .6.2.6.5-.2.2-.3.4-.5.5zm18.2 0l-3.8 3.6.9 5v.2c0 .3-.1.5-.4.5-.1 0-.3 0-.4-.1l-4.7-2.4-4.7 2.4c-.1.1-.3.1-.4.1-.3 0-.4-.2-.4-.5v-.2l.9-5-3.8-3.6c-.1-.1-.3-.3-.3-.5 0-.3.3-.4.6-.5l5.3-.7 2.4-4.6c.1-.2.3-.4.5-.4s.4.2.5.4L157 37l5.3.7c.3 0 .6.2.6.5 0 .2-.2.4-.3.5z" fill="#FFBA00" fill-rule="nonzero"/></g></svg>