<?xml version="1.0" encoding="utf-8"?>
<!-- Generator: Adobe Illustrator 16.0.0, SVG Export Plug-In . SVG Version: 6.00 Build 0)  -->
<!DOCTYPE svg PUBLIC "-//W3C//DTD SVG 1.1//EN" "http://www.w3.org/Graphics/SVG/1.1/DTD/svg11.dtd">
<svg xmlns="http://www.w3.org/2000/svg" viewBox="110 -429 501.942 502">
<g transform="translate(109.971 -429)">
<path d="M199.762,179.069l-20.777,20.778a10,10,0,1,0,14.142,14.143L213.9,193.212a10,10,0,0,0-14.142-14.143Z"></path>
<path d="M148.437,230.4,62.9,315.936a82.826,82.826,0,0,0,0,117.135A10,10,0,1,0,77.039,418.93a62.827,62.827,0,0,1,0-88.851l85.54-85.54A10,10,0,1,0,148.437,230.4Z"></path>
<path d="M501.971,113.866a10,10,0,0,0-2.929-7.071L395.175,2.929a10,10,0,0,0-14.142,0L290.348,93.615l-22.6-22.6a10,10,0,0,0-14.143,0L36.7,287.906A125.414,125.414,0,0,0,214.064,465.268l216.9-216.9a10,10,0,0,0,0-14.143l-22.605-22.6,90.685-90.686A10,10,0,0,0,501.971,113.866ZM409.748,241.3,199.921,451.125A105.413,105.413,0,0,1,50.845,302.049L260.671,92.223ZM394.214,197.48,304.49,107.756,388.1,24.142,414.112,50.15,389.762,74.5A10,10,0,1,0,403.9,88.643l24.351-24.351,49.575,49.574Z"></path>
<path d="M361.83,102.43l-7.855,7.855a10,10,0,0,0,14.143,14.143l7.855-7.855A10,10,0,1,0,361.83,102.43Z"></path>
</g>
</svg>