<?xml version="1.0" encoding="utf-8"?>
<!-- Generator: Adobe Illustrator 16.0.0, SVG Export Plug-In . SVG Version: 6.00 Build 0)  -->
<!DOCTYPE svg PUBLIC "-//W3C//DTD SVG 1.1//EN" "http://www.w3.org/Graphics/SVG/1.1/DTD/svg11.dtd">
<svg xmlns="http://www.w3.org/2000/svg" viewBox="93 62 512 483.959"><g transform="translate(93 47.979)"><path d="M508.668,120.583C503.011,111.8,492.5,110,481.371,108.1c-17.747-3.042-39.829-6.828-55.848-37.053-.068-.121-.132-.243-.2-.365l-.008-.012c-18.569-34.946-53.994-56.644-92.525-56.644-58.182,0-105.517,48.96-105.517,109.14a110.3,110.3,0,0,0,27.166,73.1c-8.9,14.3-35.972,22.38-75.886,22.38h-.017c-57.057,0-119.893-16.665-137.956-31.562a10,10,0,0,0-13.517.728C6.442,208.924-3.3,246.9,1,289.4c4.114,40.655,20.21,78.7,44.5,105.712a69.994,69.994,0,1,0,130.945,43.707H314.815A70,70,0,1,0,449.1,402.373c27.654-29.738,41.676-74.166,36.785-117.816-4.022-35.9-20.375-67.411-45.757-89.214,5.946-1.948,12.723-4.4,19.66-7.351,29.14-12.413,46.191-27.4,50.683-44.533C512.989,133.857,512.4,126.373,508.668,120.583Zm-401.381,357.4A49.973,49.973,0,0,1,67.1,398.266l.231-.311q.657-.871,1.348-1.714c.043-.053.087-.1.131-.156a50.661,50.661,0,0,1,4.77-5l.137-.128c.488-.442.989-.871,1.494-1.294q.284-.238.571-.473.686-.558,1.392-1.1c.278-.209.56-.412.843-.615.417-.3.833-.607,1.261-.9.7-.475,1.413-.936,2.137-1.374.2-.12.4-.229.6-.346.617-.362,1.239-.717,1.871-1.051.217-.116.438-.226.658-.338.65-.332,1.306-.653,1.97-.957l.541-.245c.783-.347,1.574-.677,2.375-.983.063-.024.125-.051.189-.074a49.976,49.976,0,0,1,5.642-1.763l.084-.02c.875-.216,1.759-.4,2.648-.572.186-.035.373-.067.561-.1q1.105-.2,2.224-.342c.248-.032.5-.066.746-.1.713-.083,1.431-.146,2.15-.2.25-.018.5-.043.749-.057.951-.055,1.9-.088,2.864-.088a50,50,0,0,1,0,100Zm276.685,0a50,50,0,0,1,0-100c.768,0,1.529.023,2.289.059.193.008.386.019.579.029.716.041,1.429.093,2.138.163l.123.011c.77.079,1.533.179,2.293.292l.406.063a50,50,0,0,1-7.828,99.385Zm82.04-191.193c4,35.735-6.406,71.913-27.465,97.331a69.725,69.725,0,0,0-43.772-25.306l-.278-.043q-1.576-.237-3.168-.4l-.467-.046c-1.048-.1-2.1-.186-3.159-.241-.133-.007-.267-.011-.4-.018-1.106-.052-2.216-.084-3.331-.084q-1.74,0-3.46.088c-.381.019-.756.055-1.135.08-.764.049-1.526.1-2.283.174-.448.044-.892.1-1.337.156-.681.08-1.361.16-2.035.26-.47.069-.936.151-1.4.23-.643.108-1.285.219-1.922.344-.475.094-.946.2-1.418.3-.621.137-1.24.277-1.855.43-.472.117-.94.241-1.409.368q-.909.246-1.809.515c-.464.139-.925.281-1.385.43-.6.192-1.188.395-1.776.6-.451.159-.9.318-1.348.486-.592.223-1.178.458-1.762.7-.431.176-.861.348-1.287.531-.6.258-1.188.531-1.778.806-.4.186-.8.366-1.2.56-.627.306-1.242.629-1.858.953-.347.182-.7.355-1.04.543-.744.407-1.477.835-2.2,1.27-.2.12-.411.232-.612.355q-1.391.846-2.738,1.757c-.22.148-.432.308-.65.458-.671.465-1.339.932-1.992,1.418-.316.236-.623.483-.935.724-.544.419-1.087.837-1.617,1.271-.338.276-.666.563-1,.845-.49.416-.98.834-1.459,1.264-.339.3-.669.615-1,.926-.457.428-.912.856-1.358,1.3-.33.324-.654.655-.978.985q-.648.664-1.28,1.343-.474.514-.94,1.036-.615.691-1.214,1.4c-.3.354-.6.71-.89,1.07-.394.485-.777.978-1.158,1.473-.278.363-.559.725-.83,1.093-.379.515-.746,1.038-1.112,1.563-.253.363-.51.724-.756,1.092-.373.559-.73,1.127-1.088,1.7-.22.349-.444.692-.657,1.045-.393.65-.766,1.313-1.138,1.977-.159.283-.327.561-.481.847q-.78,1.437-1.494,2.912c-.033.069-.063.141-.1.21q-.656,1.368-1.253,2.768c-.145.338-.273.684-.412,1.024-.274.672-.548,1.345-.8,2.027-.152.408-.289.823-.434,1.235-.22.626-.438,1.252-.64,1.886-.141.443-.27.892-.4,1.34-.182.613-.36,1.227-.525,1.846-.124.468-.239.94-.354,1.411-.149.609-.293,1.222-.426,1.838-.1.483-.2.97-.3,1.457q-.178.921-.332,1.852c-.081.495-.159.991-.23,1.49-.038.264-.087.524-.122.789H176.692c-.036-.271-.086-.536-.124-.806q-.105-.73-.226-1.457-.156-.947-.337-1.884c-.092-.477-.187-.954-.289-1.429-.135-.626-.281-1.248-.432-1.867-.113-.464-.226-.927-.348-1.387-.166-.627-.348-1.247-.531-1.867-.131-.441-.258-.884-.4-1.321-.2-.642-.425-1.276-.647-1.91-.142-.4-.276-.811-.425-1.211-.257-.693-.535-1.377-.814-2.061-.135-.33-.26-.665-.4-.992q-.607-1.425-1.275-2.815c-.026-.055-.049-.111-.075-.165q-.714-1.477-1.5-2.917c-.151-.278-.314-.549-.469-.824-.376-.672-.753-1.342-1.15-2-.209-.347-.431-.685-.646-1.028-.361-.575-.723-1.149-1.1-1.713-.244-.364-.5-.721-.747-1.079-.369-.53-.739-1.058-1.122-1.577-.268-.364-.545-.723-.821-1.081-.384-.5-.771-1-1.168-1.485-.29-.356-.585-.709-.881-1.06q-.6-.715-1.223-1.412-.462-.519-.933-1.027-.635-.684-1.289-1.352c-.32-.328-.641-.655-.968-.977-.451-.443-.91-.877-1.373-1.309-.328-.306-.654-.613-.987-.913-.484-.434-.979-.856-1.475-1.277-.327-.278-.651-.561-.983-.832-.537-.439-1.085-.863-1.635-1.286-.306-.235-.607-.478-.917-.709-.664-.494-1.342-.97-2.024-1.44-.208-.144-.41-.3-.619-.436Q145,369,143.6,368.152c-.186-.113-.379-.217-.566-.329-.743-.443-1.49-.879-2.251-1.3-.336-.185-.68-.355-1.02-.533-.622-.327-1.245-.654-1.878-.963-.391-.191-.789-.369-1.185-.553-.6-.276-1.189-.552-1.793-.813-.422-.182-.849-.353-1.274-.525-.589-.24-1.179-.477-1.776-.7-.443-.166-.89-.324-1.337-.483q-.888-.314-1.786-.605-.686-.222-1.378-.428c-.6-.181-1.207-.352-1.815-.517-.466-.126-.933-.25-1.4-.366-.617-.153-1.238-.294-1.861-.431-.47-.1-.939-.207-1.413-.3-.638-.126-1.282-.237-1.926-.345-.466-.079-.93-.161-1.4-.23-.675-.1-1.356-.18-2.038-.26-.445-.053-.887-.112-1.335-.156-.757-.074-1.521-.125-2.285-.175-.378-.024-.753-.06-1.133-.079q-1.719-.086-3.46-.088-1.77,0-3.529.09a69.509,69.509,0,0,0-26.438,6.662l-.149.068c-.714.341-1.413.707-2.113,1.071-.34.177-.686.343-1.022.524s-.652.374-.979.559a70.044,70.044,0,0,0-15.407,11.677C37.672,354.955,24.44,322.335,20.9,287.389c-3.234-31.969,2.535-61.331,15.188-79.222,28.93,17.009,90.193,30.473,142.448,30.476h.018c55.246,0,88.879-14.317,97.258-41.4a10,10,0,0,0-2.454-10,90.271,90.271,0,0,1-26.084-64.081c0-49.151,38.362-89.139,85.517-89.139,31.188,0,59.916,17.715,74.977,46.232.039.074.079.142.118.215,0,.007.007.015.011.021,16.6,29.48-.568,51.55-22.937,75.317-11.287,11.993-20.2,21.468-15.518,32.312,4.147,9.6,15.688,13.032,45.273,13.234C443.7,219.68,461.88,249.907,466.012,286.786Zm25.114-148.4c-5.232,19.971-48.121,36.793-74.685,42.968-14.446-.045-22.068-.918-26.013-1.721,2.38-2.99,6.105-6.948,9.094-10.123,9.726-10.334,21.831-23.2,29.01-39.284a67.852,67.852,0,0,0,5.4-18.6c15.488,11.274,31.739,14.062,44.06,16.173,5.009.858,12.577,2.155,13.848,3.584C491.85,131.407,492.527,133.044,491.126,138.39Z"></path><path d="M361.665,96.534a13.2,13.2,0,1,0,12.873,13.2A13.065,13.065,0,0,0,361.665,96.534Z"></path><path d="M110.573,417.977a10,10,0,1,0,9.779,10A9.91,9.91,0,0,0,110.573,417.977Z"></path><path d="M381.144,417.977a10,10,0,1,0,9.778,10A9.91,9.91,0,0,0,381.144,417.977Z"></path><path d="M427.532,248.029a10,10,0,0,0-10,10v.235a10,10,0,0,0,20,0v-.235A10,10,0,0,0,427.532,248.029Z"></path><path d="M444.367,281.647a10,10,0,0,0-18.66,7.2c2.415,6.258,2.836,21.844-.386,35.07a10,10,0,1,0,19.432,4.732C448.166,314.637,449.129,293.992,444.367,281.647Z"></path></g></svg>