<?xml version="1.0" encoding="utf-8"?>
<!-- Generator: Adobe Illustrator 16.0.0, SVG Export Plug-In . SVG Version: 6.00 Build 0)  -->
<!DOCTYPE svg PUBLIC "-//W3C//DTD SVG 1.1//EN" "http://www.w3.org/Graphics/SVG/1.1/DTD/svg11.dtd">
<svg xmlns="http://www.w3.org/2000/svg" viewBox="0 0 304.000000 224.000000">
<g transform="translate(0.000000,219.000000) scale(0.100000,-0.100000)">
<path d="M195 2166 c-74 -35 -130 -89 -164 -158 -26 -51 -31 -73 -31 -132 1
-144 83 -242 243 -292 l58 -18 -61 -22 c-138 -50 -210 -147 -210 -282 0 -248
295 -403 488 -256 43 34 95 115 120 189 21 61 23 61 42 0 67 -216 252 -312
428 -224 111 55 174 154 180 280 7 145 -67 242 -226 296 -52 17 -62 23 -47 29
115 39 200 109 230 188 24 62 17 175 -13 237 -35 71 -87 125 -154 158 -178 89
-365 -10 -429 -226 -14 -51 -24 -54 -33 -13 -9 46 -55 136 -93 179 -76 89
-220 119 -328 67z m219 -95 c74 -46 129 -172 144 -328 l8 -82 -28 -6 c-54 -12
-188 -7 -245 10 -106 31 -151 62 -185 130 -51 98 3 224 122 285 61 32 122 29
184 -9z m633 -1 c61 -35 100 -88 119 -160 21 -79 -10 -151 -86 -201 -63 -42
-131 -60 -245 -66 -123 -7 -129 -2 -127 94 4 268 169 430 339 333z m-478 -604
c21 -19 23 -26 17 -87 -18 -199 -117 -341 -238 -341 -53 0 -81 11 -135 51 -51
37 -95 117 -95 175 -1 50 30 114 71 149 91 76 319 108 380 53z m460 -5 c175
-66 222 -199 120 -342 -48 -67 -162 -106 -233 -79 -63 23 -129 110 -158 205
-15 53 -26 159 -19 200 5 34 10 41 36 45 52 9 198 -8 254 -29z"></path>
<path d="M1420 2070 c-18 -33 -8 -73 20 -87 19 -10 177 -13 698 -13 739 0 715
2 747 -60 13 -25 15 -53 9 -160 l-7 -130 -807 -2 c-859 -3 -840 -2 -840 -50 0
-11 5 -28 10 -39 10 -19 30 -19 825 -19 l815 0 0 -647 c0 -617 -1 -650 -20
-690 -11 -25 -33 -51 -52 -63 -33 -20 -48 -20 -1084 -20 l-1051 0 -6 397 c-6
362 -8 399 -24 410 -18 14 -53 8 -65 -11 -4 -6 -8 -190 -8 -408 l0 -398 -134
0 c-122 0 -136 2 -167 23 -18 12 -44 38 -56 56 -23 33 -23 39 -23 335 0 166
-4 307 -8 313 -8 12 -31 18 -65 15 -17 -2 -18 -21 -15 -340 l3 -339 30 -48
c20 -32 45 -56 74 -72 l44 -23 1276 0 c1213 0 1278 1 1316 19 60 27 111 89
124 150 8 36 11 312 11 880 0 914 1 895 -63 968 -67 76 -29 73 -804 73 -688 0
-692 0 -703 -20z"></path>
<path d="M1167 816 c-136 -49 -201 -172 -175 -331 17 -110 87 -188 193 -216
61 -17 201 -6 260 20 87 39 95 51 95 152 0 119 -1 120 -142 117 -93 -3 -113
-6 -122 -20 -21 -35 4 -53 78 -56 l67 -3 -3 -47 -3 -47 -57 -19 c-82 -26 -140
-16 -189 33 -129 129 -30 368 140 336 24 -5 51 -22 84 -56 51 -52 70 -58 105
-33 53 37 -3 137 -95 168 -57 20 -184 20 -236 2z"></path>
<path d="M1656 808 c-13 -19 -16 -61 -16 -263 0 -272 3 -285 65 -285 62 0 65
13 65 285 0 272 -3 285 -65 285 -24 0 -39 -7 -49 -22z"></path>
<path d="M1908 809 c-16 -9 -18 -33 -18 -267 0 -187 3 -261 12 -270 17 -17 74
-15 92 4 13 12 16 39 16 124 l0 109 118 3 117 3 0 35 0 35 -117 3 -118 3 0 69
0 70 128 0 c134 0 152 5 152 45 0 41 -16 45 -195 45 -97 0 -178 -5 -187 -11z"></path>
<path d="M2319 799 c-8 -16 -8 -28 0 -45 10 -23 16 -24 96 -24 l85 0 0 -219
c0 -241 2 -251 60 -251 58 0 60 10 60 251 l0 219 85 0 c80 0 86 1 96 24 8 17
8 29 0 45 -11 20 -17 21 -241 21 -224 0 -230 -1 -241 -21z"></path>
</g>
</svg>